<?xml version="1.0" encoding="UTF-8" standalone="no"?>
<!-- Generated by IcoMoon.io -->

<svg
   xmlns:osb="http://www.openswatchbook.org/uri/2009/osb"
   xmlns:dc="http://purl.org/dc/elements/1.1/"
   xmlns:cc="http://creativecommons.org/ns#"
   xmlns:rdf="http://www.w3.org/1999/02/22-rdf-syntax-ns#"
   xmlns:svg="http://www.w3.org/2000/svg"
   xmlns="http://www.w3.org/2000/svg"
   xmlns:sodipodi="http://sodipodi.sourceforge.net/DTD/sodipodi-0.dtd"
   xmlns:inkscape="http://www.inkscape.org/namespaces/inkscape"
   version="1.1"
   width="64"
   height="64"
   viewBox="0 0 64 64"
   id="svg2"
   inkscape:version="0.91 r13725"
   sodipodi:docname="adl-self-3.svg">
  <metadata
     id="metadata12">
    <rdf:RDF>
      <cc:Work
         rdf:about="">
        <dc:format>image/svg+xml</dc:format>
        <dc:type
           rdf:resource="http://purl.org/dc/dcmitype/StillImage" />
        <dc:title>home</dc:title>
      </cc:Work>
    </rdf:RDF>
  </metadata>
  <defs
     id="defs10">
    <linearGradient
       id="linearGradient5597"
       osb:paint="solid">
      <stop
         style="stop-color:#000000;stop-opacity:1;"
         offset="0"
         id="stop5599" />
    </linearGradient>
  </defs>
  <sodipodi:namedview
     pagecolor="#ffffff"
     bordercolor="#666666"
     borderopacity="1"
     objecttolerance="10"
     gridtolerance="10"
     guidetolerance="10"
     inkscape:pageopacity="0"
     inkscape:pageshadow="2"
     inkscape:window-width="1366"
     inkscape:window-height="705"
     id="namedview8"
     showgrid="false"
     inkscape:zoom="5.6568543"
     inkscape:cx="-8.8815599"
     inkscape:cy="49.629084"
     inkscape:window-x="-8"
     inkscape:window-y="-8"
     inkscape:window-maximized="1"
     inkscape:current-layer="layer2" />
  <title
     id="title4">home</title>
  <g
     inkscape:groupmode="layer"
     id="layer4"
     inkscape:label="Layer 4"
     style="display:inline">
    <path
       sodipodi:nodetypes="ccccc"
       inkscape:connector-curvature="0"
       id="circle4187"
       d="M 32.005862,1.4804834 C 15.149333,1.4795745 1.484031,15.144571 1.4843916,32.001285 c 0,16.856711 13.6649424,30.521708 30.5214704,30.520799 C 48.861626,62.521933 62.525736,48.857232 62.525379,32.001285 62.525754,15.145334 48.861626,1.4806509 32.005862,1.4804834 Z"
       style="opacity:1;fill:#bbbbbf;fill-opacity:0.94117647;fill-rule:evenodd;stroke:#000000;stroke-width:2;stroke-linejoin:miter;stroke-miterlimit:4;stroke-dasharray:none;stroke-opacity:1" />
  </g>
  <g
     inkscape:groupmode="layer"
     id="layer3"
     inkscape:label="Layer 3"
     style="display:inline">
    <g
       style="display:inline"
       id="g4266"
       transform="matrix(0.07511764,0,0,0.07511764,69.6872,-9.6219993)">
      <g
         id="g4259">
        <path
           sodipodi:nodetypes="ccccc"
           inkscape:connector-curvature="0"
           d="m -728.50114,284.2555 c -38.38638,20.59757 -33.70511,77.24089 7.49003,93.1572 18.25694,7.02189 21.53383,7.02189 38.85451,0 31.24063,-14.36084 36.8073,-47.41554 27.61947,-70.21899 -11.70317,-27.15135 -46.34453,-37.91826 -73.96401,-22.93821 z"
           id="path4224-2"
           style="fill:#000000;stroke:none"
           transform="translate(199.68678,29.953018)" />
        <path
           style="fill:#000000;stroke:none"
           id="path4222-8"
           d="m 242.05096,422.89234 c -5.04475,3.36317 -35.87374,40.9185 -68.94486,84.07911 l -59.41589,79.03436 -88.002797,-1.68158 -88.00281,-1.68159 -59.415903,-77.9133 c -32.51056,-43.16061 -62.21855,-79.59489 -66.14224,-80.71594 -3.36315,-1.12106 -11.64681,-2.17945 -18.93366,-0.49787 -27.46585,6.72633 -19.74273,29.08476 50.3232,121.57178 36.43429,47.64483 71.747533,90.80548 78.473863,96.41068 l 12.89213,10.0895 0,232.0583 c 0,224.21101 0.56051,233.17941 11.21054,242.70841 15.13423,13.4526 39.23691,12.3316 51.5685101,-2.8026 8.96844,-11.2106 10.0895,-25.2238 10.0895,-140.69241 l 0,-128.3608 19.6184499,0 19.61846,0 0,130.0424 c 0,71.74751 -1.280192,126.36091 4.48422,136.76861 9.52896,14.0132 43.281157,16.9406 52.314117,0.1894 10.88975,-11.9965 11.01221,-162.92483 10.46494,-233.36881 0,-231.4977 0,-236.5425 11.21055,-239.3451 6.1658,-1.6816 43.72114,-47.08432 84.07911,-100.33442 73.42906,-99.21334 77.35276,-107.62125 57.17377,-124.43707 -10.65002,-7.84738 -12.3316,-7.84738 -24.6632,-1.12106 z M 27.368993,695.51438 c 3.36317,-0.5606 18.878367,-23.16985 31.209967,-23.73035 34.139256,-6.1797 41.103938,31.63225 29.326993,56.03516 -15.69477,31.9501 -46.506247,65.0212 -59.398377,65.0212 -12.89213,0 -46.541293,-35.8737 -60.554483,-62.779 -18.308074,-34.12811 1.619124,-64.1216 31.13555531,-59.54294 11.21054969,1.6816 25.47770469,24.99593 28.28034469,24.99593 z"
           inkscape:connector-curvature="0"
           sodipodi:nodetypes="cccccccccccsccscccsccccccccccsccc"
           transform="matrix(0.8351539,0,0,0.8351539,-524.98846,-55.824229)" />
      </g>
      <path
         style="opacity:1;fill:#e0e0e0;fill-opacity:1;fill-rule:evenodd;stroke:none;stroke-width:0.08838835;stroke-linecap:round;stroke-linejoin:round;stroke-miterlimit:4;stroke-dasharray:none;stroke-opacity:1"
         d="m 46.608169,37.903695 c -0.474496,-0.250206 -1.769938,-1.556281 -2.423035,-2.442924 -0.296808,-0.402946 -0.690218,-1.03728 -0.874243,-1.40963 -0.309054,-0.625328 -0.334592,-0.735223 -0.334592,-1.439817 0,-0.694206 0.02397,-0.801591 0.26653,-1.193918 0.346254,-0.560053 1.004511,-0.925321 1.66601,-0.924473 0.566999,7.28e-4 0.803133,0.149766 1.568573,0.990018 l 0.584298,0.641405 0.608945,-0.609434 c 0.826942,-0.827605 1.019181,-0.933451 1.696092,-0.933852 0.790103,-4.69e-4 1.194429,0.249276 1.573528,0.971941 0.121191,0.231024 0.161982,0.501423 0.161091,1.067855 -0.0011,0.705396 -0.02641,0.810587 -0.361388,1.502602 -0.667343,1.378625 -2.080208,3.118666 -3.012176,3.709703 -0.481865,0.30559 -0.653364,0.316392 -1.119633,0.07052 z"
         id="path4472-1"
         inkscape:connector-curvature="0"
         transform="matrix(13.312452,0,0,13.312452,-1128.4394,98.617245)" />
    </g>
  </g>
  <g
     inkscape:groupmode="layer"
     id="layer2"
     inkscape:label="Layer 2"
     style="display:inline">
    <path
       d="m -31.949432,1.5209369 a 30.405548,30.491076 0 0 1 26.3546311,15.2258421 30.405548,30.491076 0 0 1 0.017002,30.50091 30.405548,30.491076 0 0 1 -26.3376404,15.25538 l -1e-6,-30.491076 z"
       sodipodi:end="1.5707963"
       sodipodi:start="4.711271"
       sodipodi:ry="30.491076"
       sodipodi:rx="30.405548"
       sodipodi:cy="32.011993"
       sodipodi:cx="-31.91544"
       sodipodi:type="arc"
       id="path4492-2"
       style="display:inline;opacity:1;fill:#e0e0e0;fill-opacity:1;fill-rule:evenodd;stroke:#000000;stroke-width:2;stroke-linejoin:miter;stroke-miterlimit:4;stroke-dasharray:none;stroke-opacity:1"
       transform="scale(-1,1)" />
  </g>
  <g
     transform="matrix(0.10566769,0,0,0.10566769,36.352043,21.807194)"
     id="g3451" />
  <g
     transform="matrix(0.10566769,0,0,0.10566769,36.352043,21.807194)"
     id="g3453" />
  <g
     transform="matrix(0.10566769,0,0,0.10566769,36.352043,21.807194)"
     id="g3455" />
  <g
     transform="matrix(0.10566769,0,0,0.10566769,36.352043,21.807194)"
     id="g3457" />
  <g
     transform="matrix(0.10566769,0,0,0.10566769,36.352043,21.807194)"
     id="g3459" />
  <g
     transform="matrix(0.10566769,0,0,0.10566769,36.352043,21.807194)"
     id="g3461" />
  <g
     transform="matrix(0.10566769,0,0,0.10566769,36.352043,21.807194)"
     id="g3463" />
  <g
     transform="matrix(0.10566769,0,0,0.10566769,36.352043,21.807194)"
     id="g3465" />
  <g
     transform="matrix(0.10566769,0,0,0.10566769,36.352043,21.807194)"
     id="g3467" />
  <g
     transform="matrix(0.10566769,0,0,0.10566769,36.352043,21.807194)"
     id="g3469" />
  <g
     transform="matrix(0.10566769,0,0,0.10566769,36.352043,21.807194)"
     id="g3471" />
  <g
     transform="matrix(0.10566769,0,0,0.10566769,36.352043,21.807194)"
     id="g3473" />
  <g
     transform="matrix(0.10566769,0,0,0.10566769,36.352043,21.807194)"
     id="g3475" />
  <g
     transform="matrix(0.10566769,0,0,0.10566769,36.352043,21.807194)"
     id="g3477" />
  <g
     transform="matrix(0.10566769,0,0,0.10566769,36.352043,21.807194)"
     id="g3479" />
  <g
     id="g4416"
     transform="matrix(0.06273479,0,0,0.06273479,45.32981,-11.601279)" />
  <g
     id="g5832"
     transform="matrix(0.07511764,0,0,0.07511764,84.765704,-7.4078947)" />
  <g
     id="g5834"
     transform="matrix(0.07511764,0,0,0.07511764,84.765704,-7.4078947)" />
  <g
     id="g5836"
     transform="matrix(0.07511764,0,0,0.07511764,84.765704,-7.4078947)" />
  <g
     id="g5838"
     transform="matrix(0.07511764,0,0,0.07511764,84.765704,-7.4078947)" />
  <g
     id="g5840"
     transform="matrix(0.07511764,0,0,0.07511764,84.765704,-7.4078947)" />
  <g
     id="g5842"
     transform="matrix(0.07511764,0,0,0.07511764,84.765704,-7.4078947)" />
  <g
     id="g5844"
     transform="matrix(0.07511764,0,0,0.07511764,84.765704,-7.4078947)" />
  <g
     id="g5846"
     transform="matrix(0.07511764,0,0,0.07511764,84.765704,-7.4078947)" />
  <g
     id="g5848"
     transform="matrix(0.07511764,0,0,0.07511764,84.765704,-7.4078947)" />
  <g
     id="g5850"
     transform="matrix(0.07511764,0,0,0.07511764,84.765704,-7.4078947)" />
  <g
     id="g5852"
     transform="matrix(0.07511764,0,0,0.07511764,84.765704,-7.4078947)" />
  <g
     id="g5854"
     transform="matrix(0.07511764,0,0,0.07511764,84.765704,-7.4078947)" />
  <g
     id="g5856"
     transform="matrix(0.07511764,0,0,0.07511764,84.765704,-7.4078947)" />
  <g
     id="g5858"
     transform="matrix(0.07511764,0,0,0.07511764,84.765704,-7.4078947)" />
  <g
     id="g5860"
     transform="matrix(0.07511764,0,0,0.07511764,84.765704,-7.4078947)" />
</svg>
