<?xml version="1.0" encoding="UTF-8" standalone="no"?>
<!-- Generated by IcoMoon.io -->

<svg
   xmlns:osb="http://www.openswatchbook.org/uri/2009/osb"
   xmlns:dc="http://purl.org/dc/elements/1.1/"
   xmlns:cc="http://creativecommons.org/ns#"
   xmlns:rdf="http://www.w3.org/1999/02/22-rdf-syntax-ns#"
   xmlns:svg="http://www.w3.org/2000/svg"
   xmlns="http://www.w3.org/2000/svg"
   xmlns:sodipodi="http://sodipodi.sourceforge.net/DTD/sodipodi-0.dtd"
   xmlns:inkscape="http://www.inkscape.org/namespaces/inkscape"
   version="1.1"
   width="64"
   height="64"
   viewBox="0 0 64 64"
   id="svg2"
   inkscape:version="0.91 r13725"
   sodipodi:docname="bathing.svg">
  <metadata
     id="metadata12">
    <rdf:RDF>
      <cc:Work
         rdf:about="">
        <dc:format>image/svg+xml</dc:format>
        <dc:type
           rdf:resource="http://purl.org/dc/dcmitype/StillImage" />
        <dc:title>home</dc:title>
      </cc:Work>
    </rdf:RDF>
  </metadata>
  <defs
     id="defs10">
    <linearGradient
       id="linearGradient5597"
       osb:paint="solid">
      <stop
         style="stop-color:#000000;stop-opacity:1;"
         offset="0"
         id="stop5599" />
    </linearGradient>
  </defs>
  <sodipodi:namedview
     pagecolor="#ffffff"
     bordercolor="#666666"
     borderopacity="1"
     objecttolerance="10"
     gridtolerance="10"
     guidetolerance="10"
     inkscape:pageopacity="0"
     inkscape:pageshadow="2"
     inkscape:window-width="1366"
     inkscape:window-height="705"
     id="namedview8"
     showgrid="false"
     inkscape:zoom="4"
     inkscape:cx="18.94536"
     inkscape:cy="48.396367"
     inkscape:window-x="-8"
     inkscape:window-y="-8"
     inkscape:window-maximized="1"
     inkscape:current-layer="g5929" />
  <title
     id="title4">home</title>
  <g
     id="g5814"
     transform="matrix(0.07511764,0,0,0.07511764,84.765704,-7.4078947)">
    <g
       id="g5816">
      <g
         id="g5929"
         transform="translate(-845.34072,193.03056)">
        <g
           id="g6393"
           transform="matrix(1.6395254,0,0,1.6395254,-275.85999,-92.314055)">
          <g
             id="g6331"
             transform="translate(1,1)">
            <g
               id="g6333">
              <g
                 id="g6335">
                <path
                   id="path6337"
                   d="m 485.4,272.067 -8.533,0 0,-179.2 c 0,-42.667 -34.133,-76.8 -76.8,-76.8 -37.77,0 -64.935,28.006 -67.974,69.041 -19.829,3.748 -34.426,20.826 -34.426,41.892 0,5.12 3.413,8.533 8.533,8.533 l 68.267,0 c 5.12,0 8.533,-3.413 8.533,-8.533 0,-20.833 -14.274,-37.769 -33.767,-41.767 2.55,-27.116 18.836,-52.1 50.834,-52.1 33.28,0 59.733,26.453 59.733,59.733 l 0,179.2 -256.825,0 c -3.86,-19.681 -20.878,-34.133 -41.841,-34.133 -8.533,-10.24 -20.48,-17.067 -34.133,-17.067 -16.213,0 -30.72,9.387 -37.547,23.04 -6.827,-3.413 -14.507,-5.973 -22.187,-5.973 -20.963,0 -37.981,14.452 -41.841,34.133 l -0.826,0 c -14.507,0 -25.6,11.093 -25.6,25.6 0,14.507 11.093,25.6 25.6,25.6 l 10.255,0 23.025,91.307 c 6.827,26.453 30.72,45.227 58.027,45.227 l 6.827,0 -11.093,22.187 c -2.56,4.267 -0.853,9.387 3.413,11.093 0.853,0.853 2.56,0.853 3.413,0.853 3.413,0 5.973,-1.707 7.68,-4.267 l 14.933,-29.866 236.8,0 14.507,29.013 c 1.707,3.413 4.267,5.12 7.68,5.12 1.707,0 2.56,0 3.413,-1.707 3.413,-1.707 5.12,-6.827 3.413,-11.093 l -10.689,-21.379 c 26.419,-0.938 49.266,-19.39 55.916,-44.328 l 23.24,-92.16 10.04,0 c 14.507,0 25.6,-11.093 25.6,-25.6 0,-14.506 -11.093,-25.599 -25.6,-25.599 z m -120.32,-153.6 -48.64,0 c 3.413,-10.24 13.653,-17.067 24.747,-17.067 11.094,0 20.48,6.827 23.893,17.067 z M 67.267,255 c 7.68,0 14.507,3.413 20.48,9.387 1.707,2.56 5.12,3.413 8.533,2.56 3.413,-0.853 5.12,-3.413 5.973,-6.827 2.56,-12.8 12.8,-22.187 25.6,-22.187 9.387,0 17.92,4.267 22.187,12.8 1.707,3.413 5.973,5.12 9.387,4.267 0.853,0 1.707,0 2.56,0 11.093,0 20.48,6.827 23.893,17.067 l -142.507,0 C 46.787,261.827 56.173,255 67.267,255 Z M 436.76,410.307 c -5.12,18.773 -22.187,32.427 -41.813,32.427 l -278.187,0 c -19.627,0 -36.693,-13.653 -41.813,-32.427 l -22.187,-87.04 404.48,0 -20.48,87.04 z M 485.4,306.2 l -17.067,0 -426.666,0 -17.067,0 c -5.12,0 -8.533,-3.413 -8.533,-8.533 0,-5.12 3.413,-8.533 8.533,-8.533 l 8.533,0 162.133,0 290.134,0 c 5.12,0 8.533,3.413 8.533,8.533 0,5.12 -3.413,8.533 -8.533,8.533 z"
                   inkscape:connector-curvature="0" />
                <path
                   id="path6339"
                   d="m 306.2,173.933 c 5.12,0 8.533,-3.413 8.533,-8.533 l 0,-4.267 c 0,-5.12 -3.413,-8.533 -8.533,-8.533 -5.12,0 -8.533,3.413 -8.533,8.533 l 0,4.267 c 0,5.12 3.413,8.533 8.533,8.533 z"
                   inkscape:connector-curvature="0" />
                <path
                   id="path6341"
                   d="m 306.2,213.187 c 5.12,0 8.533,-4.267 8.533,-8.533 l 0,-9.387 c 0,-5.12 -3.413,-8.533 -8.533,-8.533 -5.12,0 -8.533,3.413 -8.533,8.533 l 0,9.387 c 0,5.119 3.413,8.533 8.533,8.533 z"
                   inkscape:connector-curvature="0" />
                <path
                   id="path6343"
                   d="m 306.2,246.467 c 5.12,0 8.533,-3.413 8.533,-8.533 l 0,-4.267 c 0,-5.12 -3.413,-8.533 -8.533,-8.533 -5.12,0 -8.533,3.413 -8.533,8.533 l 0,4.267 c 0,5.119 3.413,8.533 8.533,8.533 z"
                   inkscape:connector-curvature="0" />
                <path
                   id="path6345"
                   d="m 340.333,173.933 c 5.12,0 8.533,-3.413 8.533,-8.533 l 0,-4.267 c 0,-5.12 -3.413,-8.533 -8.533,-8.533 -5.12,0 -8.533,3.413 -8.533,8.533 l 0,4.267 c 0,5.12 3.413,8.533 8.533,8.533 z"
                   inkscape:connector-curvature="0" />
                <path
                   id="path6347"
                   d="m 331.8,204.653 c 0,5.12 3.413,8.533 8.533,8.533 5.12,0 8.533,-4.267 8.533,-8.533 l 0,-9.387 c 0,-5.12 -3.413,-8.533 -8.533,-8.533 -5.12,0 -8.533,3.413 -8.533,8.533 l 0,9.387 z"
                   inkscape:connector-curvature="0" />
                <path
                   id="path6349"
                   d="m 331.8,237.933 c 0,5.12 3.413,8.533 8.533,8.533 5.12,0 8.533,-3.413 8.533,-8.533 l 0,-4.267 c 0,-5.12 -3.413,-8.533 -8.533,-8.533 -5.12,0 -8.533,3.413 -8.533,8.533 l 0,4.267 z"
                   inkscape:connector-curvature="0" />
                <path
                   id="path6351"
                   d="m 374.467,173.933 c 5.12,0 8.533,-3.413 8.533,-8.533 l 0,-4.267 c 0,-5.12 -3.413,-8.533 -8.533,-8.533 -5.12,0 -8.533,3.413 -8.533,8.533 l 0,4.267 c -0.001,5.12 3.413,8.533 8.533,8.533 z"
                   inkscape:connector-curvature="0" />
                <path
                   id="path6353"
                   d="m 365.933,204.653 c 0,5.12 3.413,8.533 8.533,8.533 5.12,0 8.534,-4.266 8.534,-8.533 l 0,-9.387 c 0,-5.12 -3.413,-8.533 -8.533,-8.533 -5.12,0 -8.533,3.413 -8.533,8.533 l 0,9.387 z"
                   inkscape:connector-curvature="0" />
                <path
                   id="path6355"
                   d="m 365.933,237.933 c 0,5.12 3.413,8.533 8.533,8.533 5.12,0 8.533,-3.413 8.533,-8.533 l 0,-4.267 c 0,-5.12 -3.413,-8.533 -8.533,-8.533 -5.12,0 -8.533,3.413 -8.533,8.533 l 0,4.267 z"
                   inkscape:connector-curvature="0" />
              </g>
            </g>
          </g>
          <g
             id="g6357" />
          <g
             id="g6359" />
          <g
             id="g6361" />
          <g
             id="g6363" />
          <g
             id="g6365" />
          <g
             id="g6367" />
          <g
             id="g6369" />
          <g
             id="g6371" />
          <g
             id="g6373" />
          <g
             id="g6375" />
          <g
             id="g6377" />
          <g
             id="g6379" />
          <g
             id="g6381" />
          <g
             id="g6383" />
          <g
             id="g6385" />
        </g>
      </g>
    </g>
  </g>
  <g
     id="g5832"
     transform="matrix(0.07511764,0,0,0.07511764,84.765704,-7.4078947)" />
  <g
     id="g5834"
     transform="matrix(0.07511764,0,0,0.07511764,84.765704,-7.4078947)" />
  <g
     id="g5836"
     transform="matrix(0.07511764,0,0,0.07511764,84.765704,-7.4078947)" />
  <g
     id="g5838"
     transform="matrix(0.07511764,0,0,0.07511764,84.765704,-7.4078947)" />
  <g
     id="g5840"
     transform="matrix(0.07511764,0,0,0.07511764,84.765704,-7.4078947)" />
  <g
     id="g5842"
     transform="matrix(0.07511764,0,0,0.07511764,84.765704,-7.4078947)" />
  <g
     id="g5844"
     transform="matrix(0.07511764,0,0,0.07511764,84.765704,-7.4078947)" />
  <g
     id="g5846"
     transform="matrix(0.07511764,0,0,0.07511764,84.765704,-7.4078947)" />
  <g
     id="g5848"
     transform="matrix(0.07511764,0,0,0.07511764,84.765704,-7.4078947)" />
  <g
     id="g5850"
     transform="matrix(0.07511764,0,0,0.07511764,84.765704,-7.4078947)" />
  <g
     id="g5852"
     transform="matrix(0.07511764,0,0,0.07511764,84.765704,-7.4078947)" />
  <g
     id="g5854"
     transform="matrix(0.07511764,0,0,0.07511764,84.765704,-7.4078947)" />
  <g
     id="g5856"
     transform="matrix(0.07511764,0,0,0.07511764,84.765704,-7.4078947)" />
  <g
     id="g5858"
     transform="matrix(0.07511764,0,0,0.07511764,84.765704,-7.4078947)" />
  <g
     id="g5860"
     transform="matrix(0.07511764,0,0,0.07511764,84.765704,-7.4078947)" />
</svg>
