<?xml version="1.0" encoding="UTF-8" standalone="no"?>
<!-- Generated by IcoMoon.io -->

<svg
   xmlns:osb="http://www.openswatchbook.org/uri/2009/osb"
   xmlns:dc="http://purl.org/dc/elements/1.1/"
   xmlns:cc="http://creativecommons.org/ns#"
   xmlns:rdf="http://www.w3.org/1999/02/22-rdf-syntax-ns#"
   xmlns:svg="http://www.w3.org/2000/svg"
   xmlns="http://www.w3.org/2000/svg"
   xmlns:sodipodi="http://sodipodi.sourceforge.net/DTD/sodipodi-0.dtd"
   xmlns:inkscape="http://www.inkscape.org/namespaces/inkscape"
   version="1.1"
   width="64"
   height="64"
   viewBox="0 0 64 64"
   id="svg2"
   inkscape:version="0.91 r13725"
   sodipodi:docname="bed-mobility.svg">
  <metadata
     id="metadata12">
    <rdf:RDF>
      <cc:Work
         rdf:about="">
        <dc:format>image/svg+xml</dc:format>
        <dc:type
           rdf:resource="http://purl.org/dc/dcmitype/StillImage" />
        <dc:title>home</dc:title>
      </cc:Work>
    </rdf:RDF>
  </metadata>
  <defs
     id="defs10">
    <linearGradient
       id="linearGradient5597"
       osb:paint="solid">
      <stop
         style="stop-color:#000000;stop-opacity:1;"
         offset="0"
         id="stop5599" />
    </linearGradient>
  </defs>
  <sodipodi:namedview
     pagecolor="#ffffff"
     bordercolor="#666666"
     borderopacity="1"
     objecttolerance="10"
     gridtolerance="10"
     guidetolerance="10"
     inkscape:pageopacity="0"
     inkscape:pageshadow="2"
     inkscape:window-width="1366"
     inkscape:window-height="705"
     id="namedview8"
     showgrid="false"
     inkscape:zoom="5.6568543"
     inkscape:cx="22.740413"
     inkscape:cy="29.04896"
     inkscape:window-x="-8"
     inkscape:window-y="-8"
     inkscape:window-maximized="1"
     inkscape:current-layer="g5929" />
  <title
     id="title4">home</title>
  <g
     id="g5814"
     transform="matrix(0.07511764,0,0,0.07511764,84.765704,-7.4078947)">
    <g
       id="g5816">
      <g
         id="g5929"
         transform="translate(-845.34072,193.03056)">
        <g
           id="g6304"
           transform="matrix(-1.6379674,0,0,1.6379674,564.13387,-112.36136)">
          <g
             id="g6250">
            <g
               id="g6252">
              <path
                 id="path6254"
                 d="m 235.561,335.822 c -15.536,0 -28.138,-12.183 -28.746,-27.641 -0.253,-6.419 -0.302,-12.887 -0.119,-19.576 l -81.239,0 c 3.829,-4.03 6.193,-9.464 6.193,-15.461 0,-12.409 -10.059,-22.468 -22.468,-22.468 l -0.313,0 c 15.053,-3.356 26.432,-16.645 26.728,-32.747 0.347,-18.884 -14.682,-34.475 -33.567,-34.821 -18.884,-0.347 -34.475,14.682 -34.821,33.566 -0.303,16.526 11.168,30.529 26.694,34.002 l -41.246,0 0,-114.466 c 0,-6.283 -5.093,-11.376 -11.376,-11.376 l -29.905,0 C 5.093,124.834 0,129.927 0,136.21 l 0.199,219.577 c 0,7.755 6.288,14.043 14.043,14.043 l 24.474,0 0,8.229 c 0,5.028 4.076,9.104 9.104,9.104 l 45.669,0 c 5.028,0 9.104,-4.076 9.104,-9.104 l 0,-8.229 305.657,0 0,8.229 c 0,5.028 4.076,9.104 9.104,9.104 l 45.669,0 c 5.028,0 9.104,-4.076 9.104,-9.104 l 0,-8.229 21.509,0 c 7.755,0 14.043,-6.288 14.043,-14.043 l 0,-20.156 c -49.232,0.032 -255.642,0.191 -272.118,0.191 z"
                 inkscape:connector-curvature="0" />
            </g>
          </g>
          <g
             id="g6256">
            <g
               id="g6258">
              <path
                 id="path6260"
                 d="m 320.098,214.364 c -0.001,-0.001 -0.002,-0.003 -0.003,-0.004 -4.804,-7.754 -15.006,-10.108 -22.711,-5.337 -0.001,0 -0.002,0.001 -0.003,0.002 l -48.526,30.055 -57.053,-26.148 26.78,4.723 c 4.175,-12.724 8.895,-23.192 13.237,-31.378 l -62.089,-1.14 c -12.892,-0.236 -23.294,10.163 -23.523,22.674 l -0.756,41.192 c -0.231,12.712 10.003,23.292 22.677,23.524 l 39.412,0.723 c 0.212,-2.548 0.457,-5.052 0.732,-7.511 l -28.126,-21.845 c 0.247,0.114 63.004,28.875 63.004,28.875 4.798,2.198 10.74,2.012 15.561,-0.974 l 56.047,-34.714 c 7.778,-4.816 10.123,-14.995 5.34,-22.717 z"
                 inkscape:connector-curvature="0" />
            </g>
          </g>
          <g
             id="g6262">
            <g
               id="g6264">
              <path
                 id="path6266"
                 d="M 463.476,208.226 C 400.75,190.113 299.475,176.721 261.505,177.795 c 0,0 -12.598,14.513 -22.559,43.451 l 6.706,1.182 43.387,-26.873 c 14.998,-9.289 34.99,-4.931 44.525,10.466 9.365,15.118 4.772,35.091 -10.466,44.526 l -56.047,34.714 c -13.218,8.188 -27.946,4.425 -33.623,0.017 l -5.883,-4.569 c -0.503,8.387 -0.643,17.255 -0.272,26.666 0.175,4.45 3.831,7.971 8.285,7.971 l 262.202,0 c 4.068,0 7.537,-2.95 8.189,-6.965 l 5.294,-32.56 c 5.172,-31.8 -16.816,-58.658 -47.767,-67.595 z"
                 inkscape:connector-curvature="0" />
            </g>
          </g>
          <g
             id="g6268" />
          <g
             id="g6270" />
          <g
             id="g6272" />
          <g
             id="g6274" />
          <g
             id="g6276" />
          <g
             id="g6278" />
          <g
             id="g6280" />
          <g
             id="g6282" />
          <g
             id="g6284" />
          <g
             id="g6286" />
          <g
             id="g6288" />
          <g
             id="g6290" />
          <g
             id="g6292" />
          <g
             id="g6294" />
          <g
             id="g6296" />
        </g>
      </g>
    </g>
  </g>
  <g
     id="g5832"
     transform="matrix(0.07511764,0,0,0.07511764,84.765704,-7.4078947)" />
  <g
     id="g5834"
     transform="matrix(0.07511764,0,0,0.07511764,84.765704,-7.4078947)" />
  <g
     id="g5836"
     transform="matrix(0.07511764,0,0,0.07511764,84.765704,-7.4078947)" />
  <g
     id="g5838"
     transform="matrix(0.07511764,0,0,0.07511764,84.765704,-7.4078947)" />
  <g
     id="g5840"
     transform="matrix(0.07511764,0,0,0.07511764,84.765704,-7.4078947)" />
  <g
     id="g5842"
     transform="matrix(0.07511764,0,0,0.07511764,84.765704,-7.4078947)" />
  <g
     id="g5844"
     transform="matrix(0.07511764,0,0,0.07511764,84.765704,-7.4078947)" />
  <g
     id="g5846"
     transform="matrix(0.07511764,0,0,0.07511764,84.765704,-7.4078947)" />
  <g
     id="g5848"
     transform="matrix(0.07511764,0,0,0.07511764,84.765704,-7.4078947)" />
  <g
     id="g5850"
     transform="matrix(0.07511764,0,0,0.07511764,84.765704,-7.4078947)" />
  <g
     id="g5852"
     transform="matrix(0.07511764,0,0,0.07511764,84.765704,-7.4078947)" />
  <g
     id="g5854"
     transform="matrix(0.07511764,0,0,0.07511764,84.765704,-7.4078947)" />
  <g
     id="g5856"
     transform="matrix(0.07511764,0,0,0.07511764,84.765704,-7.4078947)" />
  <g
     id="g5858"
     transform="matrix(0.07511764,0,0,0.07511764,84.765704,-7.4078947)" />
  <g
     id="g5860"
     transform="matrix(0.07511764,0,0,0.07511764,84.765704,-7.4078947)" />
</svg>
