<?xml version="1.0" encoding="UTF-8" standalone="no"?>
<!-- Generated by IcoMoon.io -->

<svg
   xmlns:osb="http://www.openswatchbook.org/uri/2009/osb"
   xmlns:dc="http://purl.org/dc/elements/1.1/"
   xmlns:cc="http://creativecommons.org/ns#"
   xmlns:rdf="http://www.w3.org/1999/02/22-rdf-syntax-ns#"
   xmlns:svg="http://www.w3.org/2000/svg"
   xmlns="http://www.w3.org/2000/svg"
   xmlns:sodipodi="http://sodipodi.sourceforge.net/DTD/sodipodi-0.dtd"
   xmlns:inkscape="http://www.inkscape.org/namespaces/inkscape"
   version="1.1"
   width="64"
   height="64"
   viewBox="0 0 64 64"
   id="svg2"
   inkscape:version="0.91 r13725"
   sodipodi:docname="coma.svg">
  <metadata
     id="metadata12">
    <rdf:RDF>
      <cc:Work
         rdf:about="">
        <dc:format>image/svg+xml</dc:format>
        <dc:type
           rdf:resource="http://purl.org/dc/dcmitype/StillImage" />
        <dc:title>home</dc:title>
      </cc:Work>
    </rdf:RDF>
  </metadata>
  <defs
     id="defs10">
    <linearGradient
       id="linearGradient5597"
       osb:paint="solid">
      <stop
         style="stop-color:#000000;stop-opacity:1;"
         offset="0"
         id="stop5599" />
    </linearGradient>
  </defs>
  <sodipodi:namedview
     pagecolor="#ffffff"
     bordercolor="#666666"
     borderopacity="1"
     objecttolerance="10"
     gridtolerance="10"
     guidetolerance="10"
     inkscape:pageopacity="0"
     inkscape:pageshadow="2"
     inkscape:window-width="1366"
     inkscape:window-height="705"
     id="namedview8"
     showgrid="false"
     inkscape:zoom="4"
     inkscape:cx="65.763354"
     inkscape:cy="31.068437"
     inkscape:window-x="-8"
     inkscape:window-y="-8"
     inkscape:window-maximized="1"
     inkscape:current-layer="g5929" />
  <title
     id="title4">home</title>
  <g
     id="g5814"
     transform="matrix(0.07511764,0,0,0.07511764,84.765704,-7.4078947)">
    <g
       id="g5816">
      <g
         id="g5929"
         transform="translate(-845.34072,193.03056)">
        <path
           id="path3380"
           d="m 143.17512,-97.016369 c -117.707504,0 -218.343543,74.748013 -260.53559,167.111297 -35.83539,60.975612 -56.97163,134.167132 -56.97163,211.112102 0,132.12755 36.52773,251.5901 94.481594,337.07442 57.957445,85.48249 136.247836,136.47144 221.569316,136.47144 85.32149,0.006 163.61182,-50.98895 221.56745,-136.47144 57.95385,-85.4825 94.48163,-204.9487 94.48163,-337.07442 0,-74.82491 -18.65656,-144.55812 -50.64903,-203.114894 C 367.21329,-17.910172 264.25324,-97.016369 143.16977,-97.016369 Z m 0,33.432657 c 129.63353,0 236.61728,107.890798 247.34105,210.332002 l -242.64472,0 -11.1281,-40.47801 L 120.64158,47.620447 104.53981,106.2667 85.754425,174.64554 55.620872,65.006816 39.465389,6.360566 23.363617,65.006816 1.0537312,146.07742 l -105.2214712,0 C -93.039648,43.83653 13.822439,-63.585534 143.1733,-63.585534 Z M 39.461803,132.60204 l 30.137138,109.58147 16.155484,58.64978 16.101765,-58.64978 18.78539,-68.43255 1.78911,6.42818 268.02642,0 c -10.67547,99.57157 -115.62858,180.75488 -247.28734,180.75488 -131.948646,0 -237.173708,-81.54651 -247.44845,-181.42398 l 130.825118,0 3.409959,-12.29997 9.505406,-34.60627 z M -88.958718,382.01307 c 32.838642,32.37527 67.139005,47.82936 99.684224,49.25349 32.547098,1.42767 64.278265,-10.90448 93.256094,-38.4653 l 23.03628,24.26534 C 92.644162,449.75854 51.375346,466.54734 9.2173085,464.701 -32.937086,462.85826 -75.048593,442.6362 -112.4405,405.77387 l 23.483552,-23.75903 z m 473.660338,0 23.48177,23.75902 c -37.38831,36.86411 -79.50341,57.08434 -121.6578,58.92891 -42.15622,1.84634 -83.42508,-14.94246 -117.80058,-47.6344 l 23.03269,-24.26357 c 28.9796,27.55905 60.7663,39.8912 93.31157,38.4653 32.54346,-1.4259 66.79194,-16.87999 99.63058,-49.25349 z M 146.91786,623.09054 c 47.33204,-0.12166 94.67842,5.70002 141.95498,17.94452 l -8.38723,32.3735 c -89.11076,-23.08281 -177.83866,-22.1847 -267.244611,0.0535 L 5.1364354,641.03491 C 52.266331,629.31279 99.591188,623.20846 146.92146,623.09039 Z"
           inkscape:connector-curvature="0" />
      </g>
    </g>
  </g>
  <g
     id="g5832"
     transform="matrix(0.07511764,0,0,0.07511764,84.765704,-7.4078947)" />
  <g
     id="g5834"
     transform="matrix(0.07511764,0,0,0.07511764,84.765704,-7.4078947)" />
  <g
     id="g5836"
     transform="matrix(0.07511764,0,0,0.07511764,84.765704,-7.4078947)" />
  <g
     id="g5838"
     transform="matrix(0.07511764,0,0,0.07511764,84.765704,-7.4078947)" />
  <g
     id="g5840"
     transform="matrix(0.07511764,0,0,0.07511764,84.765704,-7.4078947)" />
  <g
     id="g5842"
     transform="matrix(0.07511764,0,0,0.07511764,84.765704,-7.4078947)" />
  <g
     id="g5844"
     transform="matrix(0.07511764,0,0,0.07511764,84.765704,-7.4078947)" />
  <g
     id="g5846"
     transform="matrix(0.07511764,0,0,0.07511764,84.765704,-7.4078947)" />
  <g
     id="g5848"
     transform="matrix(0.07511764,0,0,0.07511764,84.765704,-7.4078947)" />
  <g
     id="g5850"
     transform="matrix(0.07511764,0,0,0.07511764,84.765704,-7.4078947)" />
  <g
     id="g5852"
     transform="matrix(0.07511764,0,0,0.07511764,84.765704,-7.4078947)" />
  <g
     id="g5854"
     transform="matrix(0.07511764,0,0,0.07511764,84.765704,-7.4078947)" />
  <g
     id="g5856"
     transform="matrix(0.07511764,0,0,0.07511764,84.765704,-7.4078947)" />
  <g
     id="g5858"
     transform="matrix(0.07511764,0,0,0.07511764,84.765704,-7.4078947)" />
  <g
     id="g5860"
     transform="matrix(0.07511764,0,0,0.07511764,84.765704,-7.4078947)" />
</svg>
