<?xml version="1.0" encoding="UTF-8" standalone="no"?>
<!-- Generated by IcoMoon.io -->

<svg
   xmlns:osb="http://www.openswatchbook.org/uri/2009/osb"
   xmlns:dc="http://purl.org/dc/elements/1.1/"
   xmlns:cc="http://creativecommons.org/ns#"
   xmlns:rdf="http://www.w3.org/1999/02/22-rdf-syntax-ns#"
   xmlns:svg="http://www.w3.org/2000/svg"
   xmlns="http://www.w3.org/2000/svg"
   xmlns:sodipodi="http://sodipodi.sourceforge.net/DTD/sodipodi-0.dtd"
   xmlns:inkscape="http://www.inkscape.org/namespaces/inkscape"
   version="1.1"
   width="64"
   height="64"
   viewBox="0 0 64 64"
   id="svg2"
   inkscape:version="0.91 r13725"
   sodipodi:docname="communication-3.svg">
  <metadata
     id="metadata12">
    <rdf:RDF>
      <cc:Work
         rdf:about="">
        <dc:format>image/svg+xml</dc:format>
        <dc:type
           rdf:resource="http://purl.org/dc/dcmitype/StillImage" />
        <dc:title>home</dc:title>
      </cc:Work>
    </rdf:RDF>
  </metadata>
  <defs
     id="defs10">
    <linearGradient
       id="linearGradient5597"
       osb:paint="solid">
      <stop
         style="stop-color:#000000;stop-opacity:1;"
         offset="0"
         id="stop5599" />
    </linearGradient>
  </defs>
  <sodipodi:namedview
     pagecolor="#ffffff"
     bordercolor="#666666"
     borderopacity="1"
     objecttolerance="10"
     gridtolerance="10"
     guidetolerance="10"
     inkscape:pageopacity="0"
     inkscape:pageshadow="2"
     inkscape:window-width="1366"
     inkscape:window-height="705"
     id="namedview8"
     showgrid="false"
     inkscape:zoom="4.0000002"
     inkscape:cx="-52.081309"
     inkscape:cy="45.940877"
     inkscape:window-x="-8"
     inkscape:window-y="-8"
     inkscape:window-maximized="1"
     inkscape:current-layer="layer2" />
  <title
     id="title4">home</title>
  <g
     transform="matrix(0.10566769,0,0,0.10566769,36.352044,21.807195)"
     id="g3451" />
  <g
     transform="matrix(0.10566769,0,0,0.10566769,36.352044,21.807195)"
     id="g3453" />
  <g
     transform="matrix(0.10566769,0,0,0.10566769,36.352044,21.807195)"
     id="g3455" />
  <g
     transform="matrix(0.10566769,0,0,0.10566769,36.352044,21.807195)"
     id="g3457" />
  <g
     transform="matrix(0.10566769,0,0,0.10566769,36.352044,21.807195)"
     id="g3459" />
  <g
     transform="matrix(0.10566769,0,0,0.10566769,36.352044,21.807195)"
     id="g3461" />
  <g
     transform="matrix(0.10566769,0,0,0.10566769,36.352044,21.807195)"
     id="g3463" />
  <g
     transform="matrix(0.10566769,0,0,0.10566769,36.352044,21.807195)"
     id="g3465" />
  <g
     transform="matrix(0.10566769,0,0,0.10566769,36.352044,21.807195)"
     id="g3467" />
  <g
     transform="matrix(0.10566769,0,0,0.10566769,36.352044,21.807195)"
     id="g3469" />
  <g
     transform="matrix(0.10566769,0,0,0.10566769,36.352044,21.807195)"
     id="g3471" />
  <g
     transform="matrix(0.10566769,0,0,0.10566769,36.352044,21.807195)"
     id="g3473" />
  <g
     transform="matrix(0.10566769,0,0,0.10566769,36.352044,21.807195)"
     id="g3475" />
  <g
     transform="matrix(0.10566769,0,0,0.10566769,36.352044,21.807195)"
     id="g3477" />
  <g
     transform="matrix(0.10566769,0,0,0.10566769,36.352044,21.807195)"
     id="g3479" />
  <g
     inkscape:groupmode="layer"
     id="layer3"
     inkscape:label="Layer 3"
     style="display:inline">
    <path
       style="display:inline;opacity:1;fill:#bbbbbf;fill-opacity:0.94117647;fill-rule:evenodd;stroke:#000000;stroke-width:2;stroke-linejoin:miter;stroke-miterlimit:4;stroke-dasharray:none;stroke-opacity:1"
       d="M 31.997558,1.4826192 C 15.141027,1.4817099 1.4757273,15.146706 1.4760882,32.003424 c 0,16.856708 13.6649408,30.521706 30.5214698,30.520797 16.855765,0 30.519875,-13.664849 30.519516,-30.520797 C 62.51743,15.147469 48.853323,1.4827862 31.997558,1.4826192 Z"
       id="circle4187"
       inkscape:connector-curvature="0"
       sodipodi:nodetypes="ccccc" />
  </g>
  <g
     inkscape:groupmode="layer"
     id="layer1"
     inkscape:label="Layer 4">
    <g
       style="display:inline"
       id="g4209"
       transform="matrix(0.0846019,0,0,0.0846019,11.506777,8.7898617)">
      <g
         id="g4169">
        <path
           id="path4171"
           d="M 477.364,127.481 C 454.525,99.409 423.5,77.233 384.292,60.959 345.084,44.685 302.256,36.549 255.813,36.549 c -46.442,0 -89.269,8.136 -128.478,24.41 C 88.126,77.233 57.102,99.405 34.261,127.481 11.419,155.555 0,186.15 0,219.269 c 0,28.549 8.61,55.299 25.837,80.232 17.227,24.934 40.778,45.874 70.664,62.813 -2.096,7.611 -4.57,14.842 -7.426,21.7 -2.855,6.851 -5.424,12.467 -7.708,16.847 -2.286,4.374 -5.376,9.23 -9.281,14.555 -3.899,5.332 -6.849,9.093 -8.848,11.283 -1.997,2.19 -5.28,5.801 -9.851,10.848 -4.565,5.041 -7.517,8.33 -8.848,9.853 -0.193,0.097 -0.953,0.948 -2.285,2.574 -1.331,1.615 -1.999,2.419 -1.999,2.419 l -1.713,2.57 c -0.953,1.42 -1.381,2.327 -1.287,2.703 0.096,0.384 -0.094,1.335 -0.57,2.854 -0.477,1.526 -0.428,2.669 0.142,3.429 l 0,0.287 c 0.762,3.234 2.283,5.853 4.567,7.851 2.284,1.992 4.858,2.991 7.71,2.991 l 1.429,0 c 12.375,-1.526 23.223,-3.613 32.548,-6.279 49.87,-12.751 93.649,-35.782 131.334,-69.094 14.274,1.523 28.074,2.283 41.396,2.283 46.442,0 89.271,-8.135 128.479,-24.414 39.208,-16.276 70.233,-38.444 93.072,-66.517 22.843,-28.072 34.263,-58.67 34.263,-91.789 10e-4,-33.114 -11.418,-63.713 -34.261,-91.787 z m -32.12,164.594 c -19.896,22.456 -46.733,40.303 -80.517,53.529 -33.784,13.223 -70.093,19.842 -108.921,19.842 -11.609,0 -23.98,-0.76 -37.113,-2.286 l -16.274,-1.708 -12.277,10.852 c -23.408,20.558 -49.582,36.829 -78.513,48.821 8.754,-15.414 15.416,-31.785 19.986,-49.102 l 7.708,-27.412 -24.838,-14.27 C 89.741,316.248 70.567,299.548 56.955,280.227 43.345,260.912 36.543,240.589 36.543,219.273 c 0,-26.077 9.945,-50.343 29.834,-72.803 19.895,-22.458 46.729,-40.303 80.515,-53.531 33.786,-13.229 70.089,-19.849 108.92,-19.849 38.828,0 75.13,6.617 108.914,19.845 33.783,13.229 60.62,31.073 80.517,53.531 19.89,22.46 29.834,46.727 29.834,72.802 0,26.075 -9.944,50.347 -29.833,72.807 z"
           inkscape:connector-curvature="0" />
      </g>
      <g
         id="g4173" />
      <g
         id="g4175" />
      <g
         id="g4177" />
      <g
         id="g4179" />
      <g
         id="g4181" />
      <g
         id="g4183" />
      <g
         id="g4185" />
      <g
         id="g4187" />
      <g
         id="g4189" />
      <g
         id="g4191" />
      <g
         id="g4193" />
      <g
         id="g4195" />
      <g
         id="g4197" />
      <g
         id="g4199" />
      <g
         id="g4201" />
    </g>
    <path
       style="opacity:1;fill:#e0e0e0;fill-opacity:1;fill-rule:evenodd;stroke:none;stroke-width:0.375;stroke-linecap:round;stroke-linejoin:round;stroke-miterlimit:4;stroke-dasharray:none;stroke-opacity:1"
       d="m 21.60582,43.271226 c 0.628799,-1.380243 1.840607,-5.257317 1.685111,-5.391367 -0.02733,-0.02356 -0.668445,-0.395722 -1.424695,-0.827021 -3.295023,-1.879191 -5.217433,-3.72746 -6.36277,-6.117379 -1.159703,-2.419895 -1.082136,-5.329044 0.20352,-7.632982 2.168411,-3.885867 7.030894,-6.843786 12.97175,-7.890903 1.86004,-0.327845 5.230728,-0.443402 7.133161,-0.244544 3.889791,0.406592 7.574871,1.673227 10.483002,3.603217 1.361886,0.90382 3.050755,2.570849 3.849031,3.799257 1.759559,2.707654 1.965833,5.765441 0.575209,8.52685 -2.097079,4.164243 -7.297045,7.285929 -13.802425,8.285986 -1.701128,0.26151 -5.334958,0.294946 -7.090912,0.06525 l -1.165434,-0.152453 -1.261931,1.065087 c -0.694063,0.585798 -1.744617,1.386694 -2.334567,1.779768 -1.126578,0.750622 -3.467039,2.030223 -3.721773,2.034806 -0.09063,0.0016 0.01284,-0.352865 0.263723,-0.903568 z"
       id="path4247"
       inkscape:connector-curvature="0" />
  </g>
  <g
     inkscape:groupmode="layer"
     id="layer2"
     inkscape:label="Layer 5">
    <ellipse
       style="opacity:1;fill:#e0e0e0;fill-opacity:1;fill-rule:evenodd;stroke:none;stroke-width:1;stroke-linecap:round;stroke-linejoin:round;stroke-miterlimit:4;stroke-dasharray:none;stroke-opacity:1"
       id="path4354"
       cx="36.1875"
       cy="29"
       rx="9.1875"
       ry="4" />
    <path
       style="opacity:1;fill:#e0e0e0;fill-opacity:1;fill-rule:evenodd;stroke:#000000;stroke-width:2;stroke-linecap:round;stroke-linejoin:round;stroke-miterlimit:4;stroke-dasharray:none;stroke-opacity:1"
       id="path4356"
       sodipodi:type="arc"
       sodipodi:cx="32.011719"
       sodipodi:cy="31.996094"
       sodipodi:rx="30.508335"
       sodipodi:ry="30.49271"
       sodipodi:start="3.1415927"
       sodipodi:end="4.712389"
       d="M 1.5033836,31.996092 A 30.508335,30.49271 0 0 1 32.011719,1.5033836 l 0,30.4927104 z" />
  </g>
  <g
     id="g5832"
     transform="matrix(0.07511764,0,0,0.07511764,84.765704,-7.4078947)" />
  <g
     id="g5834"
     transform="matrix(0.07511764,0,0,0.07511764,84.765704,-7.4078947)" />
  <g
     id="g5836"
     transform="matrix(0.07511764,0,0,0.07511764,84.765704,-7.4078947)" />
  <g
     id="g5838"
     transform="matrix(0.07511764,0,0,0.07511764,84.765704,-7.4078947)" />
  <g
     id="g5840"
     transform="matrix(0.07511764,0,0,0.07511764,84.765704,-7.4078947)" />
  <g
     id="g5842"
     transform="matrix(0.07511764,0,0,0.07511764,84.765704,-7.4078947)" />
  <g
     id="g5844"
     transform="matrix(0.07511764,0,0,0.07511764,84.765704,-7.4078947)" />
  <g
     id="g5846"
     transform="matrix(0.07511764,0,0,0.07511764,84.765704,-7.4078947)" />
  <g
     id="g5848"
     transform="matrix(0.07511764,0,0,0.07511764,84.765704,-7.4078947)" />
  <g
     id="g5850"
     transform="matrix(0.07511764,0,0,0.07511764,84.765704,-7.4078947)" />
  <g
     id="g5852"
     transform="matrix(0.07511764,0,0,0.07511764,84.765704,-7.4078947)" />
  <g
     id="g5854"
     transform="matrix(0.07511764,0,0,0.07511764,84.765704,-7.4078947)" />
  <g
     id="g5856"
     transform="matrix(0.07511764,0,0,0.07511764,84.765704,-7.4078947)" />
  <g
     id="g5858"
     transform="matrix(0.07511764,0,0,0.07511764,84.765704,-7.4078947)" />
  <g
     id="g5860"
     transform="matrix(0.07511764,0,0,0.07511764,84.765704,-7.4078947)" />
</svg>
