<?xml version="1.0" encoding="UTF-8" standalone="no"?>
<!-- Generated by IcoMoon.io -->

<svg
   xmlns:osb="http://www.openswatchbook.org/uri/2009/osb"
   xmlns:dc="http://purl.org/dc/elements/1.1/"
   xmlns:cc="http://creativecommons.org/ns#"
   xmlns:rdf="http://www.w3.org/1999/02/22-rdf-syntax-ns#"
   xmlns:svg="http://www.w3.org/2000/svg"
   xmlns="http://www.w3.org/2000/svg"
   xmlns:sodipodi="http://sodipodi.sourceforge.net/DTD/sodipodi-0.dtd"
   xmlns:inkscape="http://www.inkscape.org/namespaces/inkscape"
   version="1.1"
   width="64"
   height="64"
   viewBox="0 0 64 64"
   id="svg2"
   inkscape:version="0.91 r13725"
   sodipodi:docname="communication-self.svg">
  <metadata
     id="metadata12">
    <rdf:RDF>
      <cc:Work
         rdf:about="">
        <dc:format>image/svg+xml</dc:format>
        <dc:type
           rdf:resource="http://purl.org/dc/dcmitype/StillImage" />
        <dc:title>home</dc:title>
      </cc:Work>
    </rdf:RDF>
  </metadata>
  <defs
     id="defs10">
    <linearGradient
       id="linearGradient5597"
       osb:paint="solid">
      <stop
         style="stop-color:#000000;stop-opacity:1;"
         offset="0"
         id="stop5599" />
    </linearGradient>
  </defs>
  <sodipodi:namedview
     pagecolor="#ffffff"
     bordercolor="#666666"
     borderopacity="1"
     objecttolerance="10"
     gridtolerance="10"
     guidetolerance="10"
     inkscape:pageopacity="0"
     inkscape:pageshadow="2"
     inkscape:window-width="1366"
     inkscape:window-height="705"
     id="namedview8"
     showgrid="false"
     inkscape:zoom="2.8284271"
     inkscape:cx="-2.6807397"
     inkscape:cy="4.3357069"
     inkscape:window-x="-8"
     inkscape:window-y="-8"
     inkscape:window-maximized="1"
     inkscape:current-layer="g5929" />
  <title
     id="title4">home</title>
  <g
     id="g5814"
     transform="matrix(0.07511764,0,0,0.07511764,84.765704,-7.4078947)">
    <g
       id="g5816">
      <g
         id="g5929"
         transform="matrix(0.9457303,0,0,0.9457303,-840.56492,12.204381)">
        <g
           id="g3451"
           transform="matrix(1.4874178,0,0,1.4874178,207.31108,398.33777)" />
        <g
           id="g3453"
           transform="matrix(1.4874178,0,0,1.4874178,207.31108,398.33777)" />
        <g
           id="g3455"
           transform="matrix(1.4874178,0,0,1.4874178,207.31108,398.33777)" />
        <g
           id="g3457"
           transform="matrix(1.4874178,0,0,1.4874178,207.31108,398.33777)" />
        <g
           id="g3459"
           transform="matrix(1.4874178,0,0,1.4874178,207.31108,398.33777)" />
        <g
           id="g3461"
           transform="matrix(1.4874178,0,0,1.4874178,207.31108,398.33777)" />
        <g
           id="g3463"
           transform="matrix(1.4874178,0,0,1.4874178,207.31108,398.33777)" />
        <g
           id="g3465"
           transform="matrix(1.4874178,0,0,1.4874178,207.31108,398.33777)" />
        <g
           id="g3467"
           transform="matrix(1.4874178,0,0,1.4874178,207.31108,398.33777)" />
        <g
           id="g3469"
           transform="matrix(1.4874178,0,0,1.4874178,207.31108,398.33777)" />
        <g
           id="g3471"
           transform="matrix(1.4874178,0,0,1.4874178,207.31108,398.33777)" />
        <g
           id="g3473"
           transform="matrix(1.4874178,0,0,1.4874178,207.31108,398.33777)" />
        <g
           id="g3475"
           transform="matrix(1.4874178,0,0,1.4874178,207.31108,398.33777)" />
        <g
           id="g3477"
           transform="matrix(1.4874178,0,0,1.4874178,207.31108,398.33777)" />
        <g
           id="g3479"
           transform="matrix(1.4874178,0,0,1.4874178,207.31108,398.33777)" />
        <g
           id="g4410"
           transform="matrix(1.2010182,0,0,1.2010182,-91.061564,-30.093208)">
          <polygon
             transform="matrix(1.4874178,0,0,1.4874178,207.31108,398.33777)"
             id="polygon3443"
             points="135.276,27.246 128.966,27.246 128.966,21.063 124.047,21.063 124.047,27.246 117.992,27.246 117.992,32.168 124.047,32.168 124.047,38.351 128.966,38.351 128.966,32.168 135.276,32.168 " />
          <path
             id="path3445"
             d="m 471.26527,502.48974 0,-77.97788 c 0,0 -75.5876,-58.88984 -151.19156,0 l 0,77.97937 c 0,0 24.06047,-24.06494 74.66391,-24.8845 50.59303,-0.82998 76.52765,24.88301 76.52765,24.88301 z M 367.67852,433.63717 c 0,-8.83378 7.15894,-15.99718 15.99271,-15.99718 4.77908,0 9.05392,2.11362 11.99603,5.43354 2.93467,-3.31992 7.20951,-5.43354 11.98859,-5.43354 8.83674,0 15.99271,7.16192 15.99271,15.99718 0,4.88765 -2.19543,9.25025 -5.65367,12.18493 l 0.007,0 -22.00337,21.59284 -22.68312,-21.59284 0.007,0 c -3.44486,-2.93468 -5.64475,-7.30471 -5.64475,-12.18493 z"
             inkscape:connector-curvature="0" />
          <path
             id="path3447"
             d="m 314.36203,531.96144 c 0,44.89175 36.40752,101.20093 81.30672,101.20093 44.88729,0 81.30374,-56.30174 81.30374,-101.20093 0,-2.12999 -0.16213,-4.2094 -0.31682,-6.29178 l -12.73825,-12.63562 c -1.15423,-1.09771 -23.05943,-21.51549 -65.85542,-21.51549 l -2.19543,0.0238 c -44.5913,0.72735 -65.67991,20.6409 -66.55748,21.49319 l -14.69123,14.21823 c -0.1056,1.56179 -0.25583,3.11465 -0.25583,4.70768 z"
             inkscape:connector-curvature="0" />
          <path
             style="fill:#000000;fill-opacity:1;fill-rule:evenodd;stroke:none;stroke-width:0.09463631;stroke-linecap:butt;stroke-linejoin:miter;stroke-miterlimit:4;stroke-dasharray:none;stroke-opacity:1"
             d="m 322.71958,608.1834 68.12745,128.4469 -153.3555,0 c -3.18496,-8.34432 -4.32205,-16.16707 -2.89404,-25.11399 6.31433,-39.5613 30.84021,-92.79018 88.12209,-103.33291 z"
             id="path4386"
             inkscape:connector-curvature="0"
             sodipodi:nodetypes="cccsc" />
          <path
             sodipodi:nodetypes="cccsc"
             inkscape:connector-curvature="0"
             id="path4388"
             d="m 475.68117,608.49447 -68.12745,128.4469 153.3555,0 c 3.18496,-8.34433 4.32205,-16.16707 2.89404,-25.114 -6.31433,-39.56129 -30.84021,-92.79018 -88.12209,-103.3329 z"
             style="fill:#000000;fill-opacity:1;fill-rule:evenodd;stroke:none;stroke-width:0.09463631;stroke-linecap:butt;stroke-linejoin:miter;stroke-miterlimit:4;stroke-dasharray:none;stroke-opacity:1" />
        </g>
        <g
           id="g3553"
           transform="matrix(9.579419,0,0,9.579419,-512.91164,447.05146)">
          <path
             inkscape:connector-curvature="0"
             d="M 56.291,26.204 C 56.204,25.906 56.072,25.64 55.91,25.406 55.401,24.47 54.42,23.834 53.283,23.834 l -14.945,0.645 c -0.655,0.028 -1.264,0.276 -1.763,0.687 -0.1,0.061 -0.204,0.12 -0.294,0.189 l -10.155,7.832 c -1.173,0.905 -1.83,2.745 -1.494,4.188 l 1.19038,5.116698 7.953967,0.01105 -0.447408,-2.117608 c -0.15,-0.701 0.23,-1.738 0.798,-2.175 l 1.809,-1.393 c 0.01481,1.938056 0.215412,5.687284 0.215412,5.687284 l 26.053555,-0.01041"
             id="path3513"
             sodipodi:nodetypes="ccccccccccccccc" />
          <path
             inkscape:connector-curvature="0"
             d="m 44.162,21.673 c 0.157,0 0.316,-0.003 0.475,-0.01 2.891,-0.125 5.561,-1.37 7.517,-3.503 1.956,-2.133 2.964,-4.901 2.839,-7.792 C 54.735,4.397 49.745,-0.249 43.698,0.01 c -2.891,0.125 -5.561,1.37 -7.517,3.503 -1.956,2.134 -2.964,4.901 -2.839,7.792 0.252,5.814 5.005,10.368 10.82,10.368 z"
             id="path3515" />
          <g
             id="g3517" />
          <g
             id="g3519" />
          <g
             id="g3521" />
          <g
             id="g3523" />
          <g
             id="g3525" />
          <g
             id="g3527" />
          <g
             id="g3529" />
          <g
             id="g3531" />
          <g
             id="g3533" />
          <g
             id="g3535" />
          <g
             id="g3537" />
          <g
             id="g3539" />
          <g
             id="g3541" />
          <g
             id="g3543" />
          <g
             id="g3545" />
        </g>
        <g
           id="g4458"
           transform="matrix(0.67339873,0,0,0.67339873,-1.8365669,129.20211)">
          <g
             id="g4418">
            <path
               id="path4420"
               d="M 477.364,127.481 C 454.525,99.409 423.5,77.233 384.292,60.959 345.084,44.685 302.256,36.549 255.813,36.549 c -46.442,0 -89.269,8.136 -128.478,24.41 C 88.126,77.233 57.102,99.405 34.261,127.481 11.419,155.555 0,186.15 0,219.269 c 0,28.549 8.61,55.299 25.837,80.232 17.227,24.934 40.778,45.874 70.664,62.813 -2.096,7.611 -4.57,14.842 -7.426,21.7 -2.855,6.851 -5.424,12.467 -7.708,16.847 -2.286,4.374 -5.376,9.23 -9.281,14.555 -3.899,5.332 -6.849,9.093 -8.848,11.283 -1.997,2.19 -5.28,5.801 -9.851,10.848 -4.565,5.041 -7.517,8.33 -8.848,9.853 -0.193,0.097 -0.953,0.948 -2.285,2.574 -1.331,1.615 -1.999,2.419 -1.999,2.419 l -1.713,2.57 c -0.953,1.42 -1.381,2.327 -1.287,2.703 0.096,0.384 -0.094,1.335 -0.57,2.854 -0.477,1.526 -0.428,2.669 0.142,3.429 l 0,0.287 c 0.762,3.234 2.283,5.853 4.567,7.851 2.284,1.992 4.858,2.991 7.71,2.991 l 1.429,0 c 12.375,-1.526 23.223,-3.613 32.548,-6.279 49.87,-12.751 93.649,-35.782 131.334,-69.094 14.274,1.523 28.074,2.283 41.396,2.283 46.442,0 89.271,-8.135 128.479,-24.414 39.208,-16.276 70.233,-38.444 93.072,-66.517 22.843,-28.072 34.263,-58.67 34.263,-91.789 10e-4,-33.114 -11.418,-63.713 -34.261,-91.787 z m -32.12,164.594 c -19.896,22.456 -46.733,40.303 -80.517,53.529 -33.784,13.223 -70.093,19.842 -108.921,19.842 -11.609,0 -23.98,-0.76 -37.113,-2.286 l -16.274,-1.708 -12.277,10.852 c -23.408,20.558 -49.582,36.829 -78.513,48.821 8.754,-15.414 15.416,-31.785 19.986,-49.102 l 7.708,-27.412 -24.838,-14.27 C 89.741,316.248 70.567,299.548 56.955,280.227 43.345,260.912 36.543,240.589 36.543,219.273 c 0,-26.077 9.945,-50.343 29.834,-72.803 19.895,-22.458 46.729,-40.303 80.515,-53.531 33.786,-13.229 70.089,-19.849 108.92,-19.849 38.828,0 75.13,6.617 108.914,19.845 33.783,13.229 60.62,31.073 80.517,53.531 19.89,22.46 29.834,46.727 29.834,72.802 0,26.075 -9.944,50.347 -29.833,72.807 z"
               inkscape:connector-curvature="0" />
          </g>
          <g
             id="g4422" />
          <g
             id="g4424" />
          <g
             id="g4426" />
          <g
             id="g4428" />
          <g
             id="g4430" />
          <g
             id="g4432" />
          <g
             id="g4434" />
          <g
             id="g4436" />
          <g
             id="g4438" />
          <g
             id="g4440" />
          <g
             id="g4442" />
          <g
             id="g4444" />
          <g
             id="g4446" />
          <g
             id="g4448" />
          <g
             id="g4450" />
        </g>
      </g>
    </g>
  </g>
  <g
     id="g5832"
     transform="matrix(0.07511764,0,0,0.07511764,84.765704,-7.4078947)" />
  <g
     id="g5834"
     transform="matrix(0.07511764,0,0,0.07511764,84.765704,-7.4078947)" />
  <g
     id="g5836"
     transform="matrix(0.07511764,0,0,0.07511764,84.765704,-7.4078947)" />
  <g
     id="g5838"
     transform="matrix(0.07511764,0,0,0.07511764,84.765704,-7.4078947)" />
  <g
     id="g5840"
     transform="matrix(0.07511764,0,0,0.07511764,84.765704,-7.4078947)" />
  <g
     id="g5842"
     transform="matrix(0.07511764,0,0,0.07511764,84.765704,-7.4078947)" />
  <g
     id="g5844"
     transform="matrix(0.07511764,0,0,0.07511764,84.765704,-7.4078947)" />
  <g
     id="g5846"
     transform="matrix(0.07511764,0,0,0.07511764,84.765704,-7.4078947)" />
  <g
     id="g5848"
     transform="matrix(0.07511764,0,0,0.07511764,84.765704,-7.4078947)" />
  <g
     id="g5850"
     transform="matrix(0.07511764,0,0,0.07511764,84.765704,-7.4078947)" />
  <g
     id="g5852"
     transform="matrix(0.07511764,0,0,0.07511764,84.765704,-7.4078947)" />
  <g
     id="g5854"
     transform="matrix(0.07511764,0,0,0.07511764,84.765704,-7.4078947)" />
  <g
     id="g5856"
     transform="matrix(0.07511764,0,0,0.07511764,84.765704,-7.4078947)" />
  <g
     id="g5858"
     transform="matrix(0.07511764,0,0,0.07511764,84.765704,-7.4078947)" />
  <g
     id="g5860"
     transform="matrix(0.07511764,0,0,0.07511764,84.765704,-7.4078947)" />
</svg>
