<?xml version="1.0" encoding="UTF-8" standalone="no"?>
<!-- Generated by IcoMoon.io -->

<svg
   xmlns:osb="http://www.openswatchbook.org/uri/2009/osb"
   xmlns:dc="http://purl.org/dc/elements/1.1/"
   xmlns:cc="http://creativecommons.org/ns#"
   xmlns:rdf="http://www.w3.org/1999/02/22-rdf-syntax-ns#"
   xmlns:svg="http://www.w3.org/2000/svg"
   xmlns="http://www.w3.org/2000/svg"
   xmlns:sodipodi="http://sodipodi.sourceforge.net/DTD/sodipodi-0.dtd"
   xmlns:inkscape="http://www.inkscape.org/namespaces/inkscape"
   version="1.1"
   width="64"
   height="64"
   viewBox="0 0 64 64"
   id="svg2"
   inkscape:version="0.91 r13725"
   sodipodi:docname="communication-0.svg">
  <metadata
     id="metadata12">
    <rdf:RDF>
      <cc:Work
         rdf:about="">
        <dc:format>image/svg+xml</dc:format>
        <dc:type
           rdf:resource="http://purl.org/dc/dcmitype/StillImage" />
        <dc:title>home</dc:title>
      </cc:Work>
    </rdf:RDF>
  </metadata>
  <defs
     id="defs10">
    <linearGradient
       id="linearGradient5597"
       osb:paint="solid">
      <stop
         style="stop-color:#000000;stop-opacity:1;"
         offset="0"
         id="stop5599" />
    </linearGradient>
  </defs>
  <sodipodi:namedview
     pagecolor="#ffffff"
     bordercolor="#666666"
     borderopacity="1"
     objecttolerance="10"
     gridtolerance="10"
     guidetolerance="10"
     inkscape:pageopacity="0"
     inkscape:pageshadow="2"
     inkscape:window-width="1366"
     inkscape:window-height="705"
     id="namedview8"
     showgrid="false"
     inkscape:zoom="2.8284272"
     inkscape:cx="-105.50154"
     inkscape:cy="18.841463"
     inkscape:window-x="-8"
     inkscape:window-y="-8"
     inkscape:window-maximized="1"
     inkscape:current-layer="layer3" />
  <title
     id="title4">home</title>
  <g
     transform="matrix(0.10566769,0,0,0.10566769,36.352044,21.807195)"
     id="g3451" />
  <g
     transform="matrix(0.10566769,0,0,0.10566769,36.352044,21.807195)"
     id="g3453" />
  <g
     transform="matrix(0.10566769,0,0,0.10566769,36.352044,21.807195)"
     id="g3455" />
  <g
     transform="matrix(0.10566769,0,0,0.10566769,36.352044,21.807195)"
     id="g3457" />
  <g
     transform="matrix(0.10566769,0,0,0.10566769,36.352044,21.807195)"
     id="g3459" />
  <g
     transform="matrix(0.10566769,0,0,0.10566769,36.352044,21.807195)"
     id="g3461" />
  <g
     transform="matrix(0.10566769,0,0,0.10566769,36.352044,21.807195)"
     id="g3463" />
  <g
     transform="matrix(0.10566769,0,0,0.10566769,36.352044,21.807195)"
     id="g3465" />
  <g
     transform="matrix(0.10566769,0,0,0.10566769,36.352044,21.807195)"
     id="g3467" />
  <g
     transform="matrix(0.10566769,0,0,0.10566769,36.352044,21.807195)"
     id="g3469" />
  <g
     transform="matrix(0.10566769,0,0,0.10566769,36.352044,21.807195)"
     id="g3471" />
  <g
     transform="matrix(0.10566769,0,0,0.10566769,36.352044,21.807195)"
     id="g3473" />
  <g
     transform="matrix(0.10566769,0,0,0.10566769,36.352044,21.807195)"
     id="g3475" />
  <g
     transform="matrix(0.10566769,0,0,0.10566769,36.352044,21.807195)"
     id="g3477" />
  <g
     transform="matrix(0.10566769,0,0,0.10566769,36.352044,21.807195)"
     id="g3479" />
  <g
     inkscape:groupmode="layer"
     id="layer3"
     inkscape:label="Layer 3"
     style="display:inline">
    <path
       style="display:inline;opacity:1;fill:#e0e0e0;fill-opacity:1;fill-rule:evenodd;stroke:#000000;stroke-width:2;stroke-linejoin:miter;stroke-miterlimit:4;stroke-dasharray:none;stroke-opacity:1"
       d="M 31.997558,1.4826192 C 15.141027,1.4817099 1.4757273,15.146706 1.4760882,32.003424 c 0,16.856708 13.6649408,30.521706 30.5214698,30.520797 16.855765,0 30.519875,-13.664849 30.519516,-30.520797 C 62.51743,15.147469 48.853323,1.4827862 31.997558,1.4826192 Z"
       id="circle4187"
       inkscape:connector-curvature="0"
       sodipodi:nodetypes="ccccc" />
  </g>
  <g
     id="g5832"
     transform="matrix(0.07511764,0,0,0.07511764,84.765704,-7.4078947)" />
  <g
     id="g5834"
     transform="matrix(0.07511764,0,0,0.07511764,84.765704,-7.4078947)" />
  <g
     id="g5836"
     transform="matrix(0.07511764,0,0,0.07511764,84.765704,-7.4078947)" />
  <g
     id="g5838"
     transform="matrix(0.07511764,0,0,0.07511764,84.765704,-7.4078947)" />
  <g
     id="g5840"
     transform="matrix(0.07511764,0,0,0.07511764,84.765704,-7.4078947)" />
  <g
     id="g5842"
     transform="matrix(0.07511764,0,0,0.07511764,84.765704,-7.4078947)" />
  <g
     id="g5844"
     transform="matrix(0.07511764,0,0,0.07511764,84.765704,-7.4078947)" />
  <g
     id="g5846"
     transform="matrix(0.07511764,0,0,0.07511764,84.765704,-7.4078947)" />
  <g
     id="g5848"
     transform="matrix(0.07511764,0,0,0.07511764,84.765704,-7.4078947)" />
  <g
     id="g5850"
     transform="matrix(0.07511764,0,0,0.07511764,84.765704,-7.4078947)" />
  <g
     id="g5852"
     transform="matrix(0.07511764,0,0,0.07511764,84.765704,-7.4078947)" />
  <g
     id="g5854"
     transform="matrix(0.07511764,0,0,0.07511764,84.765704,-7.4078947)" />
  <g
     id="g5856"
     transform="matrix(0.07511764,0,0,0.07511764,84.765704,-7.4078947)" />
  <g
     id="g5858"
     transform="matrix(0.07511764,0,0,0.07511764,84.765704,-7.4078947)" />
  <g
     id="g5860"
     transform="matrix(0.07511764,0,0,0.07511764,84.765704,-7.4078947)" />
</svg>
