<?xml version="1.0" encoding="UTF-8" standalone="no"?>
<!-- Generated by IcoMoon.io -->

<svg
   xmlns:osb="http://www.openswatchbook.org/uri/2009/osb"
   xmlns:dc="http://purl.org/dc/elements/1.1/"
   xmlns:cc="http://creativecommons.org/ns#"
   xmlns:rdf="http://www.w3.org/1999/02/22-rdf-syntax-ns#"
   xmlns:svg="http://www.w3.org/2000/svg"
   xmlns="http://www.w3.org/2000/svg"
   xmlns:sodipodi="http://sodipodi.sourceforge.net/DTD/sodipodi-0.dtd"
   xmlns:inkscape="http://www.inkscape.org/namespaces/inkscape"
   version="1.1"
   width="64"
   height="64"
   viewBox="0 0 64 64"
   id="svg2"
   inkscape:version="0.91 r13725"
   sodipodi:docname="dressing-upper.svg">
  <metadata
     id="metadata12">
    <rdf:RDF>
      <cc:Work
         rdf:about="">
        <dc:format>image/svg+xml</dc:format>
        <dc:type
           rdf:resource="http://purl.org/dc/dcmitype/StillImage" />
        <dc:title>home</dc:title>
      </cc:Work>
    </rdf:RDF>
  </metadata>
  <defs
     id="defs10">
    <linearGradient
       id="linearGradient5597"
       osb:paint="solid">
      <stop
         style="stop-color:#000000;stop-opacity:1;"
         offset="0"
         id="stop5599" />
    </linearGradient>
  </defs>
  <sodipodi:namedview
     pagecolor="#ffffff"
     bordercolor="#666666"
     borderopacity="1"
     objecttolerance="10"
     gridtolerance="10"
     guidetolerance="10"
     inkscape:pageopacity="0"
     inkscape:pageshadow="2"
     inkscape:window-width="1366"
     inkscape:window-height="705"
     id="namedview8"
     showgrid="false"
     inkscape:zoom="4"
     inkscape:cx="-43.546897"
     inkscape:cy="36.955315"
     inkscape:window-x="-8"
     inkscape:window-y="-8"
     inkscape:window-maximized="1"
     inkscape:current-layer="g6643" />
  <title
     id="title4">home</title>
  <g
     id="g5814"
     transform="matrix(0.07511764,0,0,0.07511764,84.765704,-7.4078947)">
    <g
       id="g5816">
      <g
         id="g5929"
         transform="translate(-845.34072,193.03056)">
        <g
           id="g6560"
           transform="matrix(11.086856,0,0,11.086856,-129.83845,-80.009226)" />
        <g
           id="g6562"
           transform="matrix(11.086856,0,0,11.086856,-129.83845,-80.009226)" />
        <g
           id="g6564"
           transform="matrix(11.086856,0,0,11.086856,-129.83845,-80.009226)" />
        <g
           id="g6566"
           transform="matrix(11.086856,0,0,11.086856,-129.83845,-80.009226)" />
        <g
           id="g6568"
           transform="matrix(11.086856,0,0,11.086856,-129.83845,-80.009226)" />
        <g
           id="g6570"
           transform="matrix(11.086856,0,0,11.086856,-129.83845,-80.009226)" />
        <g
           id="g6572"
           transform="matrix(11.086856,0,0,11.086856,-129.83845,-80.009226)" />
        <g
           id="g6574"
           transform="matrix(11.086856,0,0,11.086856,-129.83845,-80.009226)" />
        <g
           id="g6576"
           transform="matrix(11.086856,0,0,11.086856,-129.83845,-80.009226)" />
        <g
           id="g6578"
           transform="matrix(11.086856,0,0,11.086856,-129.83845,-80.009226)" />
        <g
           id="g6580"
           transform="matrix(11.086856,0,0,11.086856,-129.83845,-80.009226)" />
        <g
           id="g6582"
           transform="matrix(11.086856,0,0,11.086856,-129.83845,-80.009226)" />
        <g
           id="g6584"
           transform="matrix(11.086856,0,0,11.086856,-129.83845,-80.009226)" />
        <g
           id="g6586"
           transform="matrix(11.086856,0,0,11.086856,-129.83845,-80.009226)" />
        <g
           id="g6588"
           transform="matrix(11.086856,0,0,11.086856,-129.83845,-80.009226)" />
        <g
           id="g6685"
           transform="matrix(1.3191483,0,0,1.3191483,-180.00132,132.98916)">
          <g
             id="g6643">
            <path
               style="fill:#000000;fill-opacity:1"
               inkscape:connector-curvature="0"
               d="m 362.672,42.66 -53.328,0 c 0,29.414 -23.938,53.336 -53.344,53.336 -29.406,0 -53.328,-23.922 -53.328,-53.336 l -53.336,0 L 0,127.996 l 42.672,117.336 64,-21.336 0,245.344 298.672,0 0,-245.344 64,21.336 L 512,127.996 362.672,42.66 Z m 93.703,175.867 -44.297,-14.766 -28.078,-9.366 0,29.602 0,224 -256,0 0,-224 0,-29.602 -28.078,9.367 -44.297,14.766 -29.43,-80.93 L 155,63.996 l 29.43,0 c 9.18,30.844 37.75,53.336 71.57,53.336 33.828,0 62.391,-22.492 71.562,-53.336 l 29.438,0 128.812,73.602 -29.437,80.929 z"
               id="path6647" />
          </g>
          <g
             id="g6649" />
          <g
             id="g6651" />
          <g
             id="g6653" />
          <g
             id="g6655" />
          <g
             id="g6657" />
          <g
             id="g6659" />
          <g
             id="g6661" />
          <g
             id="g6663" />
          <g
             id="g6665" />
          <g
             id="g6667" />
          <g
             id="g6669" />
          <g
             id="g6671" />
          <g
             id="g6673" />
          <g
             id="g6675" />
          <g
             id="g6677" />
        </g>
        <g
           id="g6874"
           transform="matrix(0.66517204,0.31017482,-0.31017482,0.66517204,69.244197,-170.49763)">
          <g
             id="g6832">
            <g
               id="g6834">
              <path
                 id="path6836"
                 d="M 508.691,102.645 C 504.001,96.013 495.724,93.434 488.1,96.227 L 362.607,142.174 C 331.295,111.488 273.981,63.679 218.686,61.062 191.425,59.775 163.81,68.018 134.291,86.273 105.802,103.891 79.865,128.57 62.833,145.601 31.792,176.643 11.265,215.803 3.474,258.845 c -7.611,42.048 -2.662,84.908 14.313,123.946 1.549,3.564 5.531,5.388 9.242,4.236 12.252,-3.805 25.612,-0.952 35.266,7.074 l -21.249,16.833 c -3.177,2.517 -3.826,7.08 -1.476,10.382 6.963,9.788 14.79,19.048 23.263,27.521 1.472,1.472 3.422,2.23 5.388,2.23 1.474,0 2.957,-0.427 4.252,-1.301 l 6.683,-4.505 c 56.764,-38.254 109.994,-82.285 158.212,-130.87 12.751,-12.848 25.17,-26.053 37.257,-39.57 l 51.126,-18.24 c 0.082,-0.029 0.165,-0.061 0.247,-0.093 70.605,-27.992 133.5,-73.731 181.883,-132.272 5.179,-6.264 5.504,-14.933 0.81,-21.571 z M 155.532,368.902 c -6.927,-6.98 -13.551,-14.036 -19.682,-21.002 -2.779,-3.156 -7.59,-3.463 -10.746,-0.684 -3.156,2.779 -3.463,7.59 -0.685,10.746 6.034,6.854 12.526,13.785 19.301,20.648 -23.467,18.985 -47.828,37.01 -73.074,54.025 l -1.397,0.941 C 64.681,428.712 60.341,423.602 56.273,418.3 l 22.069,-17.483 c 1.584,-1.254 2.602,-3.085 2.836,-5.091 0.232,-2.006 -0.341,-4.022 -1.595,-5.605 C 67.595,374.99 48.072,367.715 29.317,370.865 15.526,336.191 11.767,298.54 18.461,261.559 c 5.296,-29.255 16.934,-56.577 34.096,-80.432 -0.74,6.078 -1.15,12.917 -0.981,20.476 1.232,54.914 31.844,105.185 57.309,137.688 1.502,1.917 3.74,2.919 5.999,2.919 1.643,0 3.298,-0.529 4.69,-1.62 3.311,-2.593 3.891,-7.38 1.298,-10.69 -23.806,-30.385 -52.507,-77.173 -54.043,-127.517 -0.908,-29.705 8.244,-46.961 8.436,-47.315 0.112,-0.202 0.209,-0.407 0.302,-0.614 0.202,-0.088 0.403,-0.183 0.6,-0.29 0.089,-0.049 9.099,-4.904 25.221,-7.243 14.898,-2.161 39.114,-2.554 69.868,7.846 0.808,0.274 1.63,0.403 2.44,0.403 3.175,0 6.138,-2.002 7.212,-5.177 1.347,-3.984 -0.79,-8.305 -4.774,-9.653 -32.173,-10.88 -58.205,-11.189 -76.585,-8.569 12.817,-11.373 27.453,-23.084 42.751,-32.544 26.818,-16.583 51.572,-24.091 75.666,-22.951 51.059,2.416 107.126,50.695 132.894,75.719 -16.263,24.22 -33.454,47.637 -51.54,70.23 -31.19,-30.724 -62.687,-54.124 -93.669,-69.538 -3.768,-1.873 -8.337,-0.339 -10.209,3.426 -1.873,3.766 -0.339,8.336 3.425,10.209 29.88,14.864 60.418,37.67 90.798,67.767 -40.477,49.051 -85.283,94.078 -134.133,134.813 z M 496.143,114.516 C 449.417,171.051 388.685,215.231 320.508,242.284 l -25.561,9.119 c 25.305,-30.038 48.943,-61.501 70.68,-94.118 l 127.71,-46.757 c 1.495,-0.548 2.414,0.194 2.922,0.912 0.51,0.721 0.905,1.841 -0.116,3.076 z"
                 inkscape:connector-curvature="0" />
            </g>
          </g>
          <g
             id="g6838" />
          <g
             id="g6840" />
          <g
             id="g6842" />
          <g
             id="g6844" />
          <g
             id="g6846" />
          <g
             id="g6848" />
          <g
             id="g6850" />
          <g
             id="g6852" />
          <g
             id="g6854" />
          <g
             id="g6856" />
          <g
             id="g6858" />
          <g
             id="g6860" />
          <g
             id="g6862" />
          <g
             id="g6864" />
          <g
             id="g6866" />
        </g>
      </g>
    </g>
  </g>
  <g
     id="g5832"
     transform="matrix(0.07511764,0,0,0.07511764,84.765704,-7.4078947)" />
  <g
     id="g5834"
     transform="matrix(0.07511764,0,0,0.07511764,84.765704,-7.4078947)" />
  <g
     id="g5836"
     transform="matrix(0.07511764,0,0,0.07511764,84.765704,-7.4078947)" />
  <g
     id="g5838"
     transform="matrix(0.07511764,0,0,0.07511764,84.765704,-7.4078947)" />
  <g
     id="g5840"
     transform="matrix(0.07511764,0,0,0.07511764,84.765704,-7.4078947)" />
  <g
     id="g5842"
     transform="matrix(0.07511764,0,0,0.07511764,84.765704,-7.4078947)" />
  <g
     id="g5844"
     transform="matrix(0.07511764,0,0,0.07511764,84.765704,-7.4078947)" />
  <g
     id="g5846"
     transform="matrix(0.07511764,0,0,0.07511764,84.765704,-7.4078947)" />
  <g
     id="g5848"
     transform="matrix(0.07511764,0,0,0.07511764,84.765704,-7.4078947)" />
  <g
     id="g5850"
     transform="matrix(0.07511764,0,0,0.07511764,84.765704,-7.4078947)" />
  <g
     id="g5852"
     transform="matrix(0.07511764,0,0,0.07511764,84.765704,-7.4078947)" />
  <g
     id="g5854"
     transform="matrix(0.07511764,0,0,0.07511764,84.765704,-7.4078947)" />
  <g
     id="g5856"
     transform="matrix(0.07511764,0,0,0.07511764,84.765704,-7.4078947)" />
  <g
     id="g5858"
     transform="matrix(0.07511764,0,0,0.07511764,84.765704,-7.4078947)" />
  <g
     id="g5860"
     transform="matrix(0.07511764,0,0,0.07511764,84.765704,-7.4078947)" />
</svg>
