<?xml version="1.0" encoding="UTF-8" standalone="no"?>
<!-- Generated by IcoMoon.io -->

<svg
   xmlns:osb="http://www.openswatchbook.org/uri/2009/osb"
   xmlns:dc="http://purl.org/dc/elements/1.1/"
   xmlns:cc="http://creativecommons.org/ns#"
   xmlns:rdf="http://www.w3.org/1999/02/22-rdf-syntax-ns#"
   xmlns:svg="http://www.w3.org/2000/svg"
   xmlns="http://www.w3.org/2000/svg"
   xmlns:sodipodi="http://sodipodi.sourceforge.net/DTD/sodipodi-0.dtd"
   xmlns:inkscape="http://www.inkscape.org/namespaces/inkscape"
   version="1.1"
   width="64"
   height="64"
   viewBox="0 0 64 64"
   id="svg2"
   inkscape:version="0.91 r13725"
   sodipodi:docname="eating.svg">
  <metadata
     id="metadata12">
    <rdf:RDF>
      <cc:Work
         rdf:about="">
        <dc:format>image/svg+xml</dc:format>
        <dc:type
           rdf:resource="http://purl.org/dc/dcmitype/StillImage" />
        <dc:title>home</dc:title>
      </cc:Work>
    </rdf:RDF>
  </metadata>
  <defs
     id="defs10">
    <linearGradient
       id="linearGradient5597"
       osb:paint="solid">
      <stop
         style="stop-color:#000000;stop-opacity:1;"
         offset="0"
         id="stop5599" />
    </linearGradient>
  </defs>
  <sodipodi:namedview
     pagecolor="#ffffff"
     bordercolor="#666666"
     borderopacity="1"
     objecttolerance="10"
     gridtolerance="10"
     guidetolerance="10"
     inkscape:pageopacity="0"
     inkscape:pageshadow="2"
     inkscape:window-width="1366"
     inkscape:window-height="705"
     id="namedview8"
     showgrid="false"
     inkscape:zoom="5.6568542"
     inkscape:cx="37.810684"
     inkscape:cy="39.997722"
     inkscape:window-x="-8"
     inkscape:window-y="-8"
     inkscape:window-maximized="1"
     inkscape:current-layer="svg2" />
  <title
     id="title4">home</title>
  <g
     id="g3339"
     transform="matrix(1.15612,0,0,1.15612,-5.0035684,-5.0167538)">
    <circle
       r="16.585493"
       cy="32.175789"
       cx="32.65707"
       id="path3351"
       style="opacity:1;fill:none;fill-opacity:0.23529412;fill-rule:evenodd;stroke:#000000;stroke-width:2.4932971;stroke-linecap:butt;stroke-linejoin:miter;stroke-miterlimit:4;stroke-dasharray:none;stroke-opacity:1" />
    <circle
       r="12.619219"
       cy="32.319603"
       cx="32.705006"
       id="path5603"
       style="opacity:1;fill:#000000;fill-opacity:1;fill-rule:evenodd;stroke:#000000;stroke-width:2.86100006;stroke-linecap:butt;stroke-linejoin:miter;stroke-miterlimit:4;stroke-dasharray:none;stroke-opacity:1" />
    <path
       sodipodi:nodetypes="ccccccc"
       inkscape:connector-curvature="0"
       id="path5607"
       d="m 53.894531,14.917706 0,15.627681 c 0.535305,1.447931 1.202262,1.673153 1.917439,1.682104 l 0,17.700808 c 0.710544,1.46496 2.671374,1.64796 3.362984,-0.06181 L 59.073259,14.878544 c -1.349712,-2.20684 -4.159797,-2.213203 -5.178728,0.03916 z"
       style="fill:#000000;fill-opacity:1;fill-rule:evenodd;stroke:#000000;stroke-width:0.1;stroke-linecap:butt;stroke-linejoin:miter;stroke-miterlimit:4;stroke-dasharray:none;stroke-opacity:1" />
    <path
       sodipodi:nodetypes="ccccccccccccccccc"
       inkscape:connector-curvature="0"
       id="path5610"
       d="m 7.6806137,49.841469 c 0.6848294,1.730782 2.5715163,1.961271 3.4276703,-0.04794 l -0.04794,-24.041631 c 1.467497,-0.504277 2.226456,-1.552839 2.49285,-2.996215 l 0.191758,-9.132464 c -0.655462,-0.741325 -1.277216,-0.750077 -1.917578,0 l 0,8.461312 c -0.281767,0.683299 -1.128552,0.765592 -1.486122,0 l 0,-8.485282 c -0.696481,-0.763152 -1.4414531,-0.708854 -2.0134569,0 l 0,8.461312 c -0.333336,0.83909 -1.2380001,0.729552 -1.5340621,0 l 0,-8.461312 c -0.5460944,-0.727398 -1.2117833,-0.692845 -1.8696383,0 l 0.047939,9.132464 c 0.5766565,1.686518 1.4914424,2.503341 2.7325483,2.996215 z"
       style="fill:#000000;fill-opacity:1;fill-rule:evenodd;stroke:#000000;stroke-width:0.1;stroke-linecap:butt;stroke-linejoin:miter;stroke-miterlimit:4;stroke-dasharray:none;stroke-opacity:1" />
  </g>
</svg>
