<?xml version="1.0" encoding="UTF-8" standalone="no"?>
<!-- Generated by IcoMoon.io -->

<svg
   xmlns:osb="http://www.openswatchbook.org/uri/2009/osb"
   xmlns:dc="http://purl.org/dc/elements/1.1/"
   xmlns:cc="http://creativecommons.org/ns#"
   xmlns:rdf="http://www.w3.org/1999/02/22-rdf-syntax-ns#"
   xmlns:svg="http://www.w3.org/2000/svg"
   xmlns="http://www.w3.org/2000/svg"
   xmlns:sodipodi="http://sodipodi.sourceforge.net/DTD/sodipodi-0.dtd"
   xmlns:inkscape="http://www.inkscape.org/namespaces/inkscape"
   version="1.1"
   width="64"
   height="64"
   viewBox="0 0 64 64"
   id="svg2"
   inkscape:version="0.91 r13725"
   sodipodi:docname="hearing.svg">
  <metadata
     id="metadata12">
    <rdf:RDF>
      <cc:Work
         rdf:about="">
        <dc:format>image/svg+xml</dc:format>
        <dc:type
           rdf:resource="http://purl.org/dc/dcmitype/StillImage" />
        <dc:title>home</dc:title>
      </cc:Work>
    </rdf:RDF>
  </metadata>
  <defs
     id="defs10">
    <linearGradient
       id="linearGradient5597"
       osb:paint="solid">
      <stop
         style="stop-color:#000000;stop-opacity:1;"
         offset="0"
         id="stop5599" />
    </linearGradient>
  </defs>
  <sodipodi:namedview
     pagecolor="#ffffff"
     bordercolor="#666666"
     borderopacity="1"
     objecttolerance="10"
     gridtolerance="10"
     guidetolerance="10"
     inkscape:pageopacity="0"
     inkscape:pageshadow="2"
     inkscape:window-width="1366"
     inkscape:window-height="705"
     id="namedview8"
     showgrid="false"
     inkscape:zoom="4"
     inkscape:cx="-27.478303"
     inkscape:cy="22.690803"
     inkscape:window-x="-8"
     inkscape:window-y="-8"
     inkscape:window-maximized="1"
     inkscape:current-layer="g5929" />
  <title
     id="title4">home</title>
  <g
     id="g5814"
     transform="matrix(0.07511764,0,0,0.07511764,84.765704,-7.4078947)">
    <g
       id="g5816">
      <g
         id="g5929"
         transform="translate(-845.34072,193.03056)">
        <g
           id="g3393"
           transform="matrix(0.1729465,0,0,-0.1729465,-298.92004,777.71122)"
           style="fill:#000000;stroke:none">
          <path
             id="path3395"
             d="m 1531,4769 c -182,-25 -401,-99 -550,-188 -233,-138 -438,-353 -551,-580 -40,-79 -37,-128 8,-173 63,-63 150,-41 196,50 80,158 250,353 391,449 126,85 286,153 447,190 103,23 393,23 498,-1 255,-57 446,-161 625,-340 333,-333 450,-841 299,-1294 -89,-269 -219,-450 -619,-862 C 1983,1720 1904,1602 1701,1157 1595,925 1552,855 1464,767 1237,541 890,519 634,713 497,817 421,963 401,1164 c -8,80 -12,91 -40,120 -27,26 -39,31 -81,31 -43,0 -54,-5 -82,-33 l -33,-33 1,-102 c 6,-354 256,-666 621,-772 228,-67 473,-33 690,97 85,50 226,189 290,286 31,46 89,157 128,246 128,287 220,458 318,591 29,38 135,155 235,260 345,357 482,529 582,730 239,481 223,1021 -44,1474 -213,362 -561,608 -975,692 -114,23 -370,33 -480,18 z"
             inkscape:connector-curvature="0" />
          <path
             id="path3397"
             d="m 1616,4159 c -351,-36 -650,-313 -722,-668 -22,-109 -15,-284 15,-386 28,-94 90,-217 145,-287 58,-72 103,-90 169,-64 57,22 74,20 102,-9 47,-47 19,-135 -43,-135 -35,0 -88,-26 -106,-51 -41,-59 -24,-141 38,-174 72,-39 211,1 287,82 67,69 84,115 84,223 0,87 -3,100 -30,149 -57,102 -148,159 -273,168 l -73,6 -30,58 c -32,64 -59,163 -59,220 0,36 1,36 68,59 91,30 242,38 335,16 334,-78 536,-411 462,-761 -45,-212 -179,-363 -374,-421 -208,-61 -276,-86 -327,-120 -100,-67 -162,-165 -218,-344 -28,-92 -43,-123 -68,-147 -72,-70 -170,-72 -242,-5 -64,60 -73,139 -25,228 50,95 38,163 -37,199 -119,56 -245,-122 -231,-327 10,-151 96,-277 236,-346 71,-35 80,-37 175,-37 93,0 107,3 168,32 126,60 201,154 248,313 29,97 61,161 105,204 48,48 75,61 204,96 140,38 214,68 287,116 311,207 440,655 295,1030 -102,263 -347,471 -623,528 -87,18 -239,21 -318,6 -29,-6 -55,-9 -56,-7 -8,8 75,117 125,164 53,51 151,109 222,132 112,36 275,29 389,-16 204,-81 339,-257 370,-484 14,-98 21,-114 63,-139 54,-34 125,-19 161,32 38,55 6,261 -64,403 -155,318 -482,499 -834,464 z"
             inkscape:connector-curvature="0" />
          <path
             id="path3399"
             d="m 4445,3614 c -5,-1 -140,-37 -300,-79 -159,-42 -298,-81 -307,-86 -31,-17 -40,-87 -15,-118 30,-36 53,-33 326,39 332,89 359,97 371,120 13,24 13,66 0,90 -10,18 -56,39 -75,34 z"
             inkscape:connector-curvature="0" />
          <path
             id="path3401"
             d="m 3745,2745 c -35,-34 -34,-86 1,-114 26,-21 35,-21 596,-21 l 569,0 24,25 c 40,40 30,96 -22,123 -16,9 -175,12 -583,12 l -561,0 -24,-25 z"
             inkscape:connector-curvature="0" />
          <path
             id="path3403"
             d="m 3514,2160 c -28,-11 -54,-48 -54,-77 0,-12 10,-33 23,-47 19,-21 92,-43 496,-151 290,-77 483,-124 497,-121 56,14 71,103 24,137 -18,13 -669,194 -950,264 -8,2 -25,0 -36,-5 z"
             inkscape:connector-curvature="0" />
        </g>
      </g>
    </g>
  </g>
  <g
     id="g5832"
     transform="matrix(0.07511764,0,0,0.07511764,84.765704,-7.4078947)" />
  <g
     id="g5834"
     transform="matrix(0.07511764,0,0,0.07511764,84.765704,-7.4078947)" />
  <g
     id="g5836"
     transform="matrix(0.07511764,0,0,0.07511764,84.765704,-7.4078947)" />
  <g
     id="g5838"
     transform="matrix(0.07511764,0,0,0.07511764,84.765704,-7.4078947)" />
  <g
     id="g5840"
     transform="matrix(0.07511764,0,0,0.07511764,84.765704,-7.4078947)" />
  <g
     id="g5842"
     transform="matrix(0.07511764,0,0,0.07511764,84.765704,-7.4078947)" />
  <g
     id="g5844"
     transform="matrix(0.07511764,0,0,0.07511764,84.765704,-7.4078947)" />
  <g
     id="g5846"
     transform="matrix(0.07511764,0,0,0.07511764,84.765704,-7.4078947)" />
  <g
     id="g5848"
     transform="matrix(0.07511764,0,0,0.07511764,84.765704,-7.4078947)" />
  <g
     id="g5850"
     transform="matrix(0.07511764,0,0,0.07511764,84.765704,-7.4078947)" />
  <g
     id="g5852"
     transform="matrix(0.07511764,0,0,0.07511764,84.765704,-7.4078947)" />
  <g
     id="g5854"
     transform="matrix(0.07511764,0,0,0.07511764,84.765704,-7.4078947)" />
  <g
     id="g5856"
     transform="matrix(0.07511764,0,0,0.07511764,84.765704,-7.4078947)" />
  <g
     id="g5858"
     transform="matrix(0.07511764,0,0,0.07511764,84.765704,-7.4078947)" />
  <g
     id="g5860"
     transform="matrix(0.07511764,0,0,0.07511764,84.765704,-7.4078947)" />
</svg>
