<?xml version="1.0" encoding="UTF-8" standalone="no"?>
<!-- Generated by IcoMoon.io -->

<svg
   xmlns:osb="http://www.openswatchbook.org/uri/2009/osb"
   xmlns:dc="http://purl.org/dc/elements/1.1/"
   xmlns:cc="http://creativecommons.org/ns#"
   xmlns:rdf="http://www.w3.org/1999/02/22-rdf-syntax-ns#"
   xmlns:svg="http://www.w3.org/2000/svg"
   xmlns="http://www.w3.org/2000/svg"
   xmlns:sodipodi="http://sodipodi.sourceforge.net/DTD/sodipodi-0.dtd"
   xmlns:inkscape="http://www.inkscape.org/namespaces/inkscape"
   version="1.1"
   width="64"
   height="64"
   viewBox="0 0 64 64"
   id="svg2"
   inkscape:version="0.91 r13725"
   sodipodi:docname="hygiene.svg">
  <metadata
     id="metadata12">
    <rdf:RDF>
      <cc:Work
         rdf:about="">
        <dc:format>image/svg+xml</dc:format>
        <dc:type
           rdf:resource="http://purl.org/dc/dcmitype/StillImage" />
        <dc:title>home</dc:title>
      </cc:Work>
    </rdf:RDF>
  </metadata>
  <defs
     id="defs10">
    <linearGradient
       id="linearGradient5597"
       osb:paint="solid">
      <stop
         style="stop-color:#000000;stop-opacity:1;"
         offset="0"
         id="stop5599" />
    </linearGradient>
  </defs>
  <sodipodi:namedview
     pagecolor="#ffffff"
     bordercolor="#666666"
     borderopacity="1"
     objecttolerance="10"
     gridtolerance="10"
     guidetolerance="10"
     inkscape:pageopacity="0"
     inkscape:pageshadow="2"
     inkscape:window-width="1366"
     inkscape:window-height="705"
     id="namedview8"
     showgrid="false"
     inkscape:zoom="5.6568543"
     inkscape:cx="1.0474541"
     inkscape:cy="39.21484"
     inkscape:window-x="-8"
     inkscape:window-y="-8"
     inkscape:window-maximized="1"
     inkscape:current-layer="svg2" />
  <title
     id="title4">home</title>
  <g
     id="g5664"
     transform="matrix(0.13799228,0,0,0.13799228,1.037849,0.37846656)">
    <g
       id="XMLID_238_">
      <path
         d="m 419.498,263.189 1.707,0 c 5.751,0 10.414,-4.662 10.414,-10.414 0,-5.752 -4.663,-10.414 -10.414,-10.414 l -14.232,0 0,-70.883 c 0,-5.752 -4.663,-10.414 -10.414,-10.414 -5.751,0 -10.414,4.662 -10.414,10.414 l 0,4.927 -25.688,0 c -3.574,0 -6.897,1.832 -8.805,4.853 l -8.331,13.191 c -3.071,4.863 -1.619,11.295 3.244,14.366 1.726,1.09 3.65,1.61 5.551,1.61 3.455,0 6.834,-1.718 8.815,-4.855 l 5.266,-8.338 19.948,0 0,45.128 -133.448,0 c -5.751,0 -10.414,4.662 -10.414,10.414 0,5.752 4.663,10.414 10.414,10.414 l 1.707,0 c 5,34.84 34.702,62.358 72.133,66.718 l 0,33.307 c 0,20.645 16.796,37.441 37.441,37.441 20.644,0 37.44,-16.796 37.44,-37.441 0,-0.793 0.646,-1.438 1.439,-1.438 l 13.141,0 c 5.751,0 10.414,-4.662 10.414,-10.414 0,-5.752 -4.663,-10.414 -10.414,-10.414 l -13.141,0 c -12.278,0 -22.267,9.988 -22.267,22.266 0,9.16 -7.452,16.613 -16.612,16.613 -9.16,0 -16.613,-7.453 -16.613,-16.613 l 0,-33.307 c 37.431,-4.359 67.133,-31.877 72.133,-66.717 z"
         id="XMLID_239_"
         inkscape:connector-curvature="0" />
      <circle
         r="39.818001"
         cy="39.827999"
         cx="140.054"
         id="XMLID_1603_" />
      <path
         d="m 249.632,207.157 c 0.729,-10.593 -7.265,-19.758 -17.847,-20.487 -7.314,-0.504 -59.114,-4.071 -66.3,-4.566 l -36.164,-63.492 44.453,45.576 59.279,4.083 c 10.034,0.691 19.199,5.249 25.806,12.833 0.822,0.943 1.591,1.919 2.308,2.925 7.863,-1.355 14.361,-7.551 15.704,-15.869 1.691,-10.475 -5.43,-20.338 -15.905,-22.029 l -70,-11.303 -24.171,-12.216 c 0.281,-11.772 -7.244,-22.765 -19.059,-26.36 L 101.846,82.288 C 87.634,77.963 72.607,85.979 68.282,100.191 l -20.311,66.748 0,0 c -1.395,4.584 -12.991,43.638 -17.727,59.594 -1.323,4.456 -2.027,9.167 -2.047,13.815 -0.065,14.971 -0.179,60.575 -0.176,196.237 0,12.733 10.322,23.055 23.054,23.055 12.732,0 23.054,-10.322 23.054,-23.055 l 0,-185.529 7.844,2.514 0,183.014 c 0,12.733 10.322,23.055 23.054,23.055 12.732,0 23.054,-10.322 23.054,-23.055 l 0,-179.99 6.583,-22.925 c -8.976,-4.774 -15.164,-12.991 -16.776,-18.808 l -8.061,-29.1 -12.606,-45.505 38.441,69.681 c 3.182,5.586 8.949,9.215 15.374,9.658 l 78.108,5.41 0.001,0 c 10.591,0.731 19.758,-7.268 20.487,-17.848 z"
         id="XMLID_1611_"
         inkscape:connector-curvature="0" />
    </g>
    <g
       id="g5628" />
    <g
       id="g5630" />
    <g
       id="g5632" />
    <g
       id="g5634" />
    <g
       id="g5636" />
    <g
       id="g5638" />
    <g
       id="g5640" />
    <g
       id="g5642" />
    <g
       id="g5644" />
    <g
       id="g5646" />
    <g
       id="g5648" />
    <g
       id="g5650" />
    <g
       id="g5652" />
    <g
       id="g5654" />
    <g
       id="g5656" />
  </g>
</svg>
