<?xml version="1.0" encoding="UTF-8" standalone="no"?>
<!-- Generated by IcoMoon.io -->

<svg
   xmlns:osb="http://www.openswatchbook.org/uri/2009/osb"
   xmlns:dc="http://purl.org/dc/elements/1.1/"
   xmlns:cc="http://creativecommons.org/ns#"
   xmlns:rdf="http://www.w3.org/1999/02/22-rdf-syntax-ns#"
   xmlns:svg="http://www.w3.org/2000/svg"
   xmlns="http://www.w3.org/2000/svg"
   xmlns:sodipodi="http://sodipodi.sourceforge.net/DTD/sodipodi-0.dtd"
   xmlns:inkscape="http://www.inkscape.org/namespaces/inkscape"
   version="1.1"
   width="64"
   height="64"
   viewBox="0 0 64 64"
   id="svg2"
   inkscape:version="0.91 r13725"
   sodipodi:docname="locomotion.svg">
  <metadata
     id="metadata12">
    <rdf:RDF>
      <cc:Work
         rdf:about="">
        <dc:format>image/svg+xml</dc:format>
        <dc:type
           rdf:resource="http://purl.org/dc/dcmitype/StillImage" />
        <dc:title>home</dc:title>
      </cc:Work>
    </rdf:RDF>
  </metadata>
  <defs
     id="defs10">
    <linearGradient
       id="linearGradient5597"
       osb:paint="solid">
      <stop
         style="stop-color:#000000;stop-opacity:1;"
         offset="0"
         id="stop5599" />
    </linearGradient>
  </defs>
  <sodipodi:namedview
     pagecolor="#ffffff"
     bordercolor="#666666"
     borderopacity="1"
     objecttolerance="10"
     gridtolerance="10"
     guidetolerance="10"
     inkscape:pageopacity="0"
     inkscape:pageshadow="2"
     inkscape:window-width="1366"
     inkscape:window-height="705"
     id="namedview8"
     showgrid="false"
     inkscape:zoom="5.6568542"
     inkscape:cx="51.195223"
     inkscape:cy="36.412488"
     inkscape:window-x="-8"
     inkscape:window-y="-8"
     inkscape:window-maximized="1"
     inkscape:current-layer="g5929" />
  <title
     id="title4">home</title>
  <g
     id="g5814"
     transform="matrix(0.07511764,0,0,0.07511764,84.765704,-7.4078947)">
    <g
       id="g5816">
      <g
         id="g5929"
         transform="translate(-845.34072,193.03056)">
        <g
           id="g5955"
           transform="matrix(1.187335,0,0,1.187335,-41.787004,-44.971245)">
          <g
             transform="matrix(5.3104135,0,0,5.3104135,-302.01285,101.55984)"
             id="g5791">
            <g
               id="g5749">
              <path
                 inkscape:connector-curvature="0"
                 d="M 72.932,46.973 61.629,40.45 C 60.904,40.032 60.028,38.919 59.792,38.116 L 56.291,26.204 C 56.204,25.906 56.072,25.64 55.91,25.406 55.401,24.47 54.42,23.834 53.283,23.834 l -14.945,0.645 c -0.655,0.028 -1.264,0.276 -1.763,0.687 -0.1,0.061 -0.204,0.12 -0.294,0.189 l -10.155,7.832 c -1.173,0.905 -1.83,2.745 -1.494,4.188 l 4.021,17.3 c 0.335,1.444 1.717,2.534 3.212,2.534 0.101,0 0.203,-0.005 0.304,-0.015 l 1.501,-0.15 c 0.804,-0.081 1.53,-0.489 1.99,-1.121 0.461,-0.632 0.628,-1.448 0.459,-2.238 L 33.26,40.33 c -0.15,-0.701 0.23,-1.738 0.798,-2.175 l 1.809,-1.393 0.93,21.444 c 0.001,0.023 0.008,0.044 0.01,0.067 l -4.128,9.156 c -0.52,1.153 -1.826,2.75 -2.852,3.489 l -9.678,6.968 c -1.559,1.122 -2.148,3.366 -1.342,5.11 l 1.324,2.861 c 0.528,1.141 1.587,1.85 2.765,1.85 0.674,0 1.337,-0.229 1.917,-0.66 l 12.778,-9.515 c 1.273,-0.948 2.843,-2.793 3.574,-4.202 l 6.379,-12.286 c 0.051,-0.099 0.083,-0.205 0.125,-0.308 l 0.445,-0.019 10.441,28.786 c 0.737,2.032 2.703,3.398 4.892,3.398 0.52,0 1.034,-0.079 1.528,-0.236 l 0.644,-0.205 c 1.276,-0.405 2.301,-1.282 2.887,-2.47 0.585,-1.188 0.656,-2.536 0.2,-3.794 L 57.711,55.885 C 57.66,55.745 57.59,55.617 57.529,55.484 l -0.353,-8.134 12.122,6.297 c 0.426,0.222 0.906,0.339 1.389,0.339 1.122,0 2.149,-0.607 2.68,-1.584 l 0.721,-1.328 c 0.784,-1.441 0.265,-3.281 -1.156,-4.101 z"
                 id="path5751" />
              <path
                 inkscape:connector-curvature="0"
                 d="m 44.162,21.673 c 0.157,0 0.316,-0.003 0.475,-0.01 2.891,-0.125 5.561,-1.37 7.517,-3.503 1.956,-2.133 2.964,-4.901 2.839,-7.792 C 54.735,4.397 49.745,-0.249 43.698,0.01 c -2.891,0.125 -5.561,1.37 -7.517,3.503 -1.956,2.134 -2.964,4.901 -2.839,7.792 0.252,5.814 5.005,10.368 10.82,10.368 z"
                 id="path5753" />
            </g>
            <g
               id="g5755" />
            <g
               id="g5757" />
            <g
               id="g5759" />
            <g
               id="g5761" />
            <g
               id="g5763" />
            <g
               id="g5765" />
            <g
               id="g5767" />
            <g
               id="g5769" />
            <g
               id="g5771" />
            <g
               id="g5773" />
            <g
               id="g5775" />
            <g
               id="g5777" />
            <g
               id="g5779" />
            <g
               id="g5781" />
            <g
               id="g5783" />
          </g>
          <path
             id="path5820"
             d="m 174.55827,487.10072 c -5.419,-2.347 -11.669,0.064 -14.08,5.44 -6.016,13.632 -12.693,23.445 -20.992,30.869 -4.395,3.947 -4.757,10.667 -0.832,15.061 2.112,2.347 5.013,3.563 7.957,3.563 2.539,0 5.077,-0.896 7.104,-2.709 10.496,-9.387 19.093,-21.867 26.283,-38.144 2.39,-5.397 -0.042,-11.691 -5.44,-14.08 z"
             inkscape:connector-curvature="0" />
          <path
             id="path5824"
             d="m 415.99,0.016 c -52.928,0 -96,43.072 -96,96 0,48.619 77.931,182.336 86.805,197.419 1.92,3.243 5.397,5.248 9.195,5.248 3.797,0 7.275,-2.005 9.195,-5.248 8.896,-15.083 86.805,-148.8 86.805,-197.419 0,-52.928 -43.072,-96 -96,-96 z m 0,149.334 c -29.397,0 -53.333,-23.936 -53.333,-53.333 0,-29.397 23.936,-53.333 53.333,-53.333 29.397,0 53.333,23.936 53.333,53.333 0,29.397 -23.936,53.333 -53.333,53.333 z"
             inkscape:connector-curvature="0" />
          <path
             id="path5826"
             d="m 342.98635,289.83042 c -7.979,0.405 -15.424,1.173 -22.379,2.261 -5.824,0.917 -9.792,6.379 -8.896,12.203 0.832,5.269 5.355,9.003 10.539,9.003 0.555,0 1.109,-0.043 1.664,-0.128 6.251,-0.981 12.949,-1.685 20.139,-2.027 5.867,-0.299 10.411,-5.312 10.133,-11.179 -0.277,-5.867 -5.227,-10.453 -11.2,-10.133 z"
             inkscape:connector-curvature="0" />
          <path
             id="path5828"
             d="m 212.19065,387.06805 c -5.44,-2.219 -11.669,0.469 -13.845,5.952 -5.056,12.672 -9.024,25.813 -12.864,38.507 l -0.725,2.432 c -1.707,5.632 1.472,11.584 7.125,13.291 1.024,0.32 2.069,0.448 3.093,0.448 4.587,0 8.811,-2.965 10.219,-7.573 l 0.725,-2.411 c 3.712,-12.288 7.552,-24.96 12.267,-36.8 2.155,-5.462 -0.512,-11.67 -5.995,-13.846 z"
             inkscape:connector-curvature="0" />
          <path
             id="path5830"
             d="m 266.78301,314.19271 c -14.101,7.296 -25.771,16.917 -35.691,29.419 -3.669,4.608 -2.901,11.328 1.728,14.997 1.963,1.557 4.309,2.304 6.635,2.304 3.136,0 6.251,-1.387 8.363,-4.032 8,-10.091 17.429,-17.856 28.8,-23.744 5.227,-2.709 7.275,-9.152 4.565,-14.379 -2.752,-5.226 -9.173,-7.295 -14.4,-4.565 z"
             inkscape:connector-curvature="0" />
        </g>
      </g>
    </g>
  </g>
  <g
     id="g5832"
     transform="matrix(0.07511764,0,0,0.07511764,84.765704,-7.4078947)" />
  <g
     id="g5834"
     transform="matrix(0.07511764,0,0,0.07511764,84.765704,-7.4078947)" />
  <g
     id="g5836"
     transform="matrix(0.07511764,0,0,0.07511764,84.765704,-7.4078947)" />
  <g
     id="g5838"
     transform="matrix(0.07511764,0,0,0.07511764,84.765704,-7.4078947)" />
  <g
     id="g5840"
     transform="matrix(0.07511764,0,0,0.07511764,84.765704,-7.4078947)" />
  <g
     id="g5842"
     transform="matrix(0.07511764,0,0,0.07511764,84.765704,-7.4078947)" />
  <g
     id="g5844"
     transform="matrix(0.07511764,0,0,0.07511764,84.765704,-7.4078947)" />
  <g
     id="g5846"
     transform="matrix(0.07511764,0,0,0.07511764,84.765704,-7.4078947)" />
  <g
     id="g5848"
     transform="matrix(0.07511764,0,0,0.07511764,84.765704,-7.4078947)" />
  <g
     id="g5850"
     transform="matrix(0.07511764,0,0,0.07511764,84.765704,-7.4078947)" />
  <g
     id="g5852"
     transform="matrix(0.07511764,0,0,0.07511764,84.765704,-7.4078947)" />
  <g
     id="g5854"
     transform="matrix(0.07511764,0,0,0.07511764,84.765704,-7.4078947)" />
  <g
     id="g5856"
     transform="matrix(0.07511764,0,0,0.07511764,84.765704,-7.4078947)" />
  <g
     id="g5858"
     transform="matrix(0.07511764,0,0,0.07511764,84.765704,-7.4078947)" />
  <g
     id="g5860"
     transform="matrix(0.07511764,0,0,0.07511764,84.765704,-7.4078947)" />
</svg>
