<?xml version="1.0" encoding="UTF-8" standalone="no"?>
<!-- Generated by IcoMoon.io -->

<svg
   xmlns:osb="http://www.openswatchbook.org/uri/2009/osb"
   xmlns:dc="http://purl.org/dc/elements/1.1/"
   xmlns:cc="http://creativecommons.org/ns#"
   xmlns:rdf="http://www.w3.org/1999/02/22-rdf-syntax-ns#"
   xmlns:svg="http://www.w3.org/2000/svg"
   xmlns="http://www.w3.org/2000/svg"
   xmlns:sodipodi="http://sodipodi.sourceforge.net/DTD/sodipodi-0.dtd"
   xmlns:inkscape="http://www.inkscape.org/namespaces/inkscape"
   version="1.1"
   width="64"
   height="64"
   viewBox="0 0 64 64"
   id="svg2"
   inkscape:version="0.91 r13725"
   sodipodi:docname="toilet-use.svg">
  <metadata
     id="metadata12">
    <rdf:RDF>
      <cc:Work
         rdf:about="">
        <dc:format>image/svg+xml</dc:format>
        <dc:type
           rdf:resource="http://purl.org/dc/dcmitype/StillImage" />
        <dc:title>home</dc:title>
      </cc:Work>
    </rdf:RDF>
  </metadata>
  <defs
     id="defs10">
    <linearGradient
       id="linearGradient5597"
       osb:paint="solid">
      <stop
         style="stop-color:#000000;stop-opacity:1;"
         offset="0"
         id="stop5599" />
    </linearGradient>
  </defs>
  <sodipodi:namedview
     pagecolor="#ffffff"
     bordercolor="#666666"
     borderopacity="1"
     objecttolerance="10"
     gridtolerance="10"
     guidetolerance="10"
     inkscape:pageopacity="0"
     inkscape:pageshadow="2"
     inkscape:window-width="1366"
     inkscape:window-height="705"
     id="namedview8"
     showgrid="false"
     inkscape:zoom="5.6568542"
     inkscape:cx="24.932529"
     inkscape:cy="35.73626"
     inkscape:window-x="-8"
     inkscape:window-y="-8"
     inkscape:window-maximized="1"
     inkscape:current-layer="svg2" />
  <title
     id="title4">home</title>
  <g
     id="g5728"
     transform="matrix(-0.12214187,0,0,0.12214187,63.347343,1.2055924)">
    <g
       id="g5686">
      <g
         id="g5688">
        <path
           id="path5690"
           d="m 510.588,230.459 c -3.61,-10.261 -13.31,-17.121 -24.188,-17.105 l -298.667,0 c -4.713,0 -8.533,3.82 -8.533,8.533 l 0,25.6 -17.067,0 0,-119.466 8.533,0 c 14.138,0 25.6,-11.461 25.6,-25.6 0,-14.139 -11.461,-25.6 -25.6,-25.6 l -8.533,0 0,-25.6 8.533,0 c 4.713,0 8.533,-3.82 8.533,-8.533 l 0,-34.134 c 0,-4.713 -3.82,-8.533 -8.533,-8.533 l -162.133,0 C 3.82,0.021 0,3.841 0,8.554 L 0,42.687 C 0,47.4 3.82,51.22 8.533,51.22 l 8.533,0 0,204.8 c 0,4.713 3.82,8.533 8.533,8.533 l 8.533,0 c 2.731,54.955 31.573,77.824 57.173,98.048 32.427,25.6 62.976,49.749 45.141,139.179 -0.945,4.617 2.032,9.126 6.649,10.071 0.648,0.133 1.308,0.189 1.969,0.169 l 273.067,0 c 4.713,-10e-4 8.533,-3.822 8.532,-8.535 0,-1.531 -0.412,-3.034 -1.193,-4.351 -24.405,-40.619 -24.405,-73.643 -24.405,-123.648 52.395,-17.067 90.197,-60.843 93.867,-112.384 13.339,-4.69 20.347,-19.306 15.656,-32.643 z M 170.667,93.887 c 4.713,0 8.533,3.82 8.533,8.533 0,4.713 -3.82,8.533 -8.533,8.533 l -8.533,0 0,-17.066 8.533,0 z m -153.6,-59.733 0,-17.067 145.067,0 0,17.067 -145.067,0 z m 17.066,17.067 110.933,0 0,196.267 -110.933,0 0,-196.267 z M 155.307,494.954 C 170.667,403.477 135.936,375.487 102.4,349.205 77.397,329.664 54.016,311.146 51.2,264.554 l 119.467,0 c 3.84,51.2 41.472,93.867 93.355,110.933 0,48.128 0,80.64 -22.016,119.467 l -86.699,0 z m 248.405,0 -141.824,0 c 18.944,-37.717 19.712,-71.168 19.712,-114.688 11.214,2.451 22.655,3.71 34.133,3.755 l 34.133,0 c 11.478,-0.045 22.92,-1.303 34.133,-3.755 10e-4,43.52 0.684,76.971 19.713,114.688 z m -53.845,-128 -34.133,0 c -67.243,0 -122.453,-45.227 -127.488,-102.4 l 289.109,0 c -5.035,57.173 -60.246,102.4 -127.488,102.4 z M 486.4,247.487 l -290.133,0 0,-17.067 290.133,0 c 4.713,0 8.533,3.82 8.533,8.533 0,4.713 -3.82,8.534 -8.533,8.534 z"
           inkscape:connector-curvature="0" />
      </g>
    </g>
    <g
       id="g5692" />
    <g
       id="g5694" />
    <g
       id="g5696" />
    <g
       id="g5698" />
    <g
       id="g5700" />
    <g
       id="g5702" />
    <g
       id="g5704" />
    <g
       id="g5706" />
    <g
       id="g5708" />
    <g
       id="g5710" />
    <g
       id="g5712" />
    <g
       id="g5714" />
    <g
       id="g5716" />
    <g
       id="g5718" />
    <g
       id="g5720" />
  </g>
</svg>
