<?xml version="1.0" encoding="UTF-8" standalone="no"?>
<!-- Generated by IcoMoon.io -->

<svg
   xmlns:osb="http://www.openswatchbook.org/uri/2009/osb"
   xmlns:dc="http://purl.org/dc/elements/1.1/"
   xmlns:cc="http://creativecommons.org/ns#"
   xmlns:rdf="http://www.w3.org/1999/02/22-rdf-syntax-ns#"
   xmlns:svg="http://www.w3.org/2000/svg"
   xmlns="http://www.w3.org/2000/svg"
   xmlns:sodipodi="http://sodipodi.sourceforge.net/DTD/sodipodi-0.dtd"
   xmlns:inkscape="http://www.inkscape.org/namespaces/inkscape"
   version="1.1"
   width="64"
   height="64"
   viewBox="0 0 64 64"
   id="svg2"
   inkscape:version="0.91 r13725"
   sodipodi:docname="transfer-toilet.svg">
  <metadata
     id="metadata12">
    <rdf:RDF>
      <cc:Work
         rdf:about="">
        <dc:format>image/svg+xml</dc:format>
        <dc:type
           rdf:resource="http://purl.org/dc/dcmitype/StillImage" />
        <dc:title>home</dc:title>
      </cc:Work>
    </rdf:RDF>
  </metadata>
  <defs
     id="defs10">
    <linearGradient
       id="linearGradient5597"
       osb:paint="solid">
      <stop
         style="stop-color:#000000;stop-opacity:1;"
         offset="0"
         id="stop5599" />
    </linearGradient>
  </defs>
  <sodipodi:namedview
     pagecolor="#ffffff"
     bordercolor="#666666"
     borderopacity="1"
     objecttolerance="10"
     gridtolerance="10"
     guidetolerance="10"
     inkscape:pageopacity="0"
     inkscape:pageshadow="2"
     inkscape:window-width="1366"
     inkscape:window-height="705"
     id="namedview8"
     showgrid="false"
     inkscape:zoom="5.6568542"
     inkscape:cx="14.315149"
     inkscape:cy="51.479271"
     inkscape:window-x="-8"
     inkscape:window-y="-8"
     inkscape:window-maximized="1"
     inkscape:current-layer="svg2" />
  <title
     id="title4">home</title>
  <g
     id="g3391">
    <g
       transform="matrix(-0.05558737,0,0,0.05558737,63.87741,25.844346)"
       id="g5728">
      <g
         id="g5686">
        <g
           id="g5688">
          <path
             inkscape:connector-curvature="0"
             d="m 510.588,230.459 c -3.61,-10.261 -13.31,-17.121 -24.188,-17.105 l -298.667,0 c -4.713,0 -8.533,3.82 -8.533,8.533 l 0,25.6 -17.067,0 0,-119.466 8.533,0 c 14.138,0 25.6,-11.461 25.6,-25.6 0,-14.139 -11.461,-25.6 -25.6,-25.6 l -8.533,0 0,-25.6 8.533,0 c 4.713,0 8.533,-3.82 8.533,-8.533 l 0,-34.134 c 0,-4.713 -3.82,-8.533 -8.533,-8.533 l -162.133,0 C 3.82,0.021 0,3.841 0,8.554 L 0,42.687 C 0,47.4 3.82,51.22 8.533,51.22 l 8.533,0 0,204.8 c 0,4.713 3.82,8.533 8.533,8.533 l 8.533,0 c 2.731,54.955 31.573,77.824 57.173,98.048 32.427,25.6 62.976,49.749 45.141,139.179 -0.945,4.617 2.032,9.126 6.649,10.071 0.648,0.133 1.308,0.189 1.969,0.169 l 273.067,0 c 4.713,-10e-4 8.533,-3.822 8.532,-8.535 0,-1.531 -0.412,-3.034 -1.193,-4.351 -24.405,-40.619 -24.405,-73.643 -24.405,-123.648 52.395,-17.067 90.197,-60.843 93.867,-112.384 13.339,-4.69 20.347,-19.306 15.656,-32.643 z M 170.667,93.887 c 4.713,0 8.533,3.82 8.533,8.533 0,4.713 -3.82,8.533 -8.533,8.533 l -8.533,0 0,-17.066 8.533,0 z m -153.6,-59.733 0,-17.067 145.067,0 0,17.067 -145.067,0 z m 17.066,17.067 110.933,0 0,196.267 -110.933,0 0,-196.267 z M 155.307,494.954 C 170.667,403.477 135.936,375.487 102.4,349.205 77.397,329.664 54.016,311.146 51.2,264.554 l 119.467,0 c 3.84,51.2 41.472,93.867 93.355,110.933 0,48.128 0,80.64 -22.016,119.467 l -86.699,0 z m 248.405,0 -141.824,0 c 18.944,-37.717 19.712,-71.168 19.712,-114.688 11.214,2.451 22.655,3.71 34.133,3.755 l 34.133,0 c 11.478,-0.045 22.92,-1.303 34.133,-3.755 10e-4,43.52 0.684,76.971 19.713,114.688 z m -53.845,-128 -34.133,0 c -67.243,0 -122.453,-45.227 -127.488,-102.4 l 289.109,0 c -5.035,57.173 -60.246,102.4 -127.488,102.4 z M 486.4,247.487 l -290.133,0 0,-17.067 290.133,0 c 4.713,0 8.533,3.82 8.533,8.533 0,4.713 -3.82,8.534 -8.533,8.534 z"
             id="path5690" />
        </g>
      </g>
      <g
         id="g5692" />
      <g
         id="g5694" />
      <g
         id="g5696" />
      <g
         id="g5698" />
      <g
         id="g5700" />
      <g
         id="g5702" />
      <g
         id="g5704" />
      <g
         id="g5706" />
      <g
         id="g5708" />
      <g
         id="g5710" />
      <g
         id="g5712" />
      <g
         id="g5714" />
      <g
         id="g5716" />
      <g
         id="g5718" />
      <g
         id="g5720" />
    </g>
    <g
       transform="matrix(0.48008249,0,0,0.48008249,-8.7518664,11.259428)"
       id="g5791">
      <g
         id="g5749">
        <path
           inkscape:connector-curvature="0"
           d="M 72.932,46.973 61.629,40.45 C 60.904,40.032 60.028,38.919 59.792,38.116 L 56.291,26.204 C 56.204,25.906 56.072,25.64 55.91,25.406 55.401,24.47 54.42,23.834 53.283,23.834 l -14.945,0.645 c -0.655,0.028 -1.264,0.276 -1.763,0.687 -0.1,0.061 -0.204,0.12 -0.294,0.189 l -10.155,7.832 c -1.173,0.905 -1.83,2.745 -1.494,4.188 l 4.021,17.3 c 0.335,1.444 1.717,2.534 3.212,2.534 0.101,0 0.203,-0.005 0.304,-0.015 l 1.501,-0.15 c 0.804,-0.081 1.53,-0.489 1.99,-1.121 0.461,-0.632 0.628,-1.448 0.459,-2.238 L 33.26,40.33 c -0.15,-0.701 0.23,-1.738 0.798,-2.175 l 1.809,-1.393 0.93,21.444 c 0.001,0.023 0.008,0.044 0.01,0.067 l -4.128,9.156 c -0.52,1.153 -1.826,2.75 -2.852,3.489 l -9.678,6.968 c -1.559,1.122 -2.148,3.366 -1.342,5.11 l 1.324,2.861 c 0.528,1.141 1.587,1.85 2.765,1.85 0.674,0 1.337,-0.229 1.917,-0.66 l 12.778,-9.515 c 1.273,-0.948 2.843,-2.793 3.574,-4.202 l 6.379,-12.286 c 0.051,-0.099 0.083,-0.205 0.125,-0.308 l 0.445,-0.019 10.441,28.786 c 0.737,2.032 2.703,3.398 4.892,3.398 0.52,0 1.034,-0.079 1.528,-0.236 l 0.644,-0.205 c 1.276,-0.405 2.301,-1.282 2.887,-2.47 0.585,-1.188 0.656,-2.536 0.2,-3.794 L 57.711,55.885 C 57.66,55.745 57.59,55.617 57.529,55.484 l -0.353,-8.134 12.122,6.297 c 0.426,0.222 0.906,0.339 1.389,0.339 1.122,0 2.149,-0.607 2.68,-1.584 l 0.721,-1.328 c 0.784,-1.441 0.265,-3.281 -1.156,-4.101 z"
           id="path5751" />
        <path
           inkscape:connector-curvature="0"
           d="m 44.162,21.673 c 0.157,0 0.316,-0.003 0.475,-0.01 2.891,-0.125 5.561,-1.37 7.517,-3.503 1.956,-2.133 2.964,-4.901 2.839,-7.792 C 54.735,4.397 49.745,-0.249 43.698,0.01 c -2.891,0.125 -5.561,1.37 -7.517,3.503 -1.956,2.134 -2.964,4.901 -2.839,7.792 0.252,5.814 5.005,10.368 10.82,10.368 z"
           id="path5753" />
      </g>
      <g
         id="g5755" />
      <g
         id="g5757" />
      <g
         id="g5759" />
      <g
         id="g5761" />
      <g
         id="g5763" />
      <g
         id="g5765" />
      <g
         id="g5767" />
      <g
         id="g5769" />
      <g
         id="g5771" />
      <g
         id="g5773" />
      <g
         id="g5775" />
      <g
         id="g5777" />
      <g
         id="g5779" />
      <g
         id="g5781" />
      <g
         id="g5783" />
    </g>
  </g>
</svg>
