<?xml version="1.0" encoding="UTF-8" standalone="no"?>
<!-- Generated by IcoMoon.io -->

<svg
   xmlns:osb="http://www.openswatchbook.org/uri/2009/osb"
   xmlns:dc="http://purl.org/dc/elements/1.1/"
   xmlns:cc="http://creativecommons.org/ns#"
   xmlns:rdf="http://www.w3.org/1999/02/22-rdf-syntax-ns#"
   xmlns:svg="http://www.w3.org/2000/svg"
   xmlns="http://www.w3.org/2000/svg"
   xmlns:sodipodi="http://sodipodi.sourceforge.net/DTD/sodipodi-0.dtd"
   xmlns:inkscape="http://www.inkscape.org/namespaces/inkscape"
   version="1.1"
   width="64"
   height="64"
   viewBox="0 0 64 64"
   id="svg2"
   inkscape:version="0.91 r13725"
   sodipodi:docname="vision.svg">
  <metadata
     id="metadata12">
    <rdf:RDF>
      <cc:Work
         rdf:about="">
        <dc:format>image/svg+xml</dc:format>
        <dc:type
           rdf:resource="http://purl.org/dc/dcmitype/StillImage" />
        <dc:title>home</dc:title>
      </cc:Work>
    </rdf:RDF>
  </metadata>
  <defs
     id="defs10">
    <linearGradient
       id="linearGradient5597"
       osb:paint="solid">
      <stop
         style="stop-color:#000000;stop-opacity:1;"
         offset="0"
         id="stop5599" />
    </linearGradient>
  </defs>
  <sodipodi:namedview
     pagecolor="#ffffff"
     bordercolor="#666666"
     borderopacity="1"
     objecttolerance="10"
     gridtolerance="10"
     guidetolerance="10"
     inkscape:pageopacity="0"
     inkscape:pageshadow="2"
     inkscape:window-width="1366"
     inkscape:window-height="705"
     id="namedview8"
     showgrid="false"
     inkscape:zoom="2.8284272"
     inkscape:cx="-30.887101"
     inkscape:cy="22.441626"
     inkscape:window-x="-8"
     inkscape:window-y="-8"
     inkscape:window-maximized="1"
     inkscape:current-layer="g5929" />
  <title
     id="title4">home</title>
  <g
     id="g5814"
     transform="matrix(0.07511764,0,0,0.07511764,84.765704,-7.4078947)">
    <g
       id="g5816">
      <g
         id="g5929"
         transform="translate(-845.34072,193.03056)">
        <g
           id="g3419"
           transform="matrix(0.31812494,0,0,-0.31812494,-518.7352,699.72681)"
           style="fill:#000000;stroke:none">
          <path
             id="path3421"
             d="m 1540,1980 c -199,-12 -407,-51 -506,-95 -31,-14 -55,-27 -53,-29 8,-8 168,-26 414,-46 719,-57 1072,-112 1658,-254 126,-31 238,-56 250,-56 18,1 13,9 -32,50 -241,219 -805,395 -1381,430 -176,11 -176,11 -350,0 z"
             inkscape:connector-curvature="0" />
          <path
             id="path3423"
             d="m 1750,1653 c -219,-20 -338,-43 -495,-93 -133,-42 -261,-101 -356,-161 -96,-62 -108,-75 -87,-95 13,-14 19,-14 51,-1 19,9 61,32 92,51 131,84 366,168 580,208 102,18 156,22 360,22 273,0 388,-16 595,-80 232,-72 334,-124 640,-322 63,-42 134,-84 158,-94 78,-35 122,-7 55,35 -21,13 -117,75 -213,138 -382,248 -665,353 -1055,389 -104,9 -246,11 -325,3 z"
             inkscape:connector-curvature="0" />
          <path
             id="path3425"
             d="M 1745,1528 C 1484,1499 1171,1365 987,1202 872,1100 866,1087 901,1011 l 20,-45 -44,-38 C 825,884 808,848 812,792 l 3,-41 75,59 c 41,33 79,60 85,60 6,0 33,-23 59,-51 40,-43 47,-55 38,-68 -34,-47 -52,-94 -52,-135 0,-25 4,-47 9,-50 4,-3 32,21 60,54 61,70 81,78 119,52 15,-11 46,-29 70,-41 34,-17 42,-26 37,-41 -12,-37 -7,-96 9,-128 20,-39 32,-40 40,-4 4,15 14,45 22,68 l 16,41 106,-34 c 181,-57 420,-77 627,-52 81,10 281,58 530,127 83,23 108,25 315,26 250,2 291,9 346,62 24,22 34,40 34,62 0,53 -19,78 -90,117 -65,36 -110,70 -322,246 -159,133 -252,196 -383,259 -275,134 -534,180 -820,148 z m 315,-69 c 181,-22 344,-75 541,-177 116,-60 194,-117 404,-296 96,-81 185,-149 223,-168 75,-37 79,-60 17,-92 -37,-19 -57,-21 -260,-22 l -220,-1 -135,-37 C 2257,566 2073,535 1905,545 c -60,3 -121,6 -135,6 -145,4 -391,88 -530,182 -119,80 -237,210 -276,302 l -15,38 33,34 c 61,64 187,152 299,208 61,30 120,55 130,55 11,0 39,9 62,19 41,18 246,66 317,74 74,8 189,7 270,-4 z"
             inkscape:connector-curvature="0" />
          <path
             id="path3427"
             d="m 1942,1439 c -145,-29 -252,-159 -252,-307 0,-74 10,-85 62,-66 54,19 84,18 93,-3 7,-20 -29,-54 -77,-74 -16,-6 -28,-15 -28,-20 0,-23 76,-89 132,-114 91,-42 172,-40 261,3 232,115 228,452 -7,557 -61,28 -126,36 -184,24 z m 243,-171 c 30,-36 32,-81 5,-108 -55,-55 -161,23 -134,98 20,56 86,61 129,10 z"
             inkscape:connector-curvature="0" />
        </g>
      </g>
    </g>
  </g>
  <g
     id="g5832"
     transform="matrix(0.07511764,0,0,0.07511764,84.765704,-7.4078947)" />
  <g
     id="g5834"
     transform="matrix(0.07511764,0,0,0.07511764,84.765704,-7.4078947)" />
  <g
     id="g5836"
     transform="matrix(0.07511764,0,0,0.07511764,84.765704,-7.4078947)" />
  <g
     id="g5838"
     transform="matrix(0.07511764,0,0,0.07511764,84.765704,-7.4078947)" />
  <g
     id="g5840"
     transform="matrix(0.07511764,0,0,0.07511764,84.765704,-7.4078947)" />
  <g
     id="g5842"
     transform="matrix(0.07511764,0,0,0.07511764,84.765704,-7.4078947)" />
  <g
     id="g5844"
     transform="matrix(0.07511764,0,0,0.07511764,84.765704,-7.4078947)" />
  <g
     id="g5846"
     transform="matrix(0.07511764,0,0,0.07511764,84.765704,-7.4078947)" />
  <g
     id="g5848"
     transform="matrix(0.07511764,0,0,0.07511764,84.765704,-7.4078947)" />
  <g
     id="g5850"
     transform="matrix(0.07511764,0,0,0.07511764,84.765704,-7.4078947)" />
  <g
     id="g5852"
     transform="matrix(0.07511764,0,0,0.07511764,84.765704,-7.4078947)" />
  <g
     id="g5854"
     transform="matrix(0.07511764,0,0,0.07511764,84.765704,-7.4078947)" />
  <g
     id="g5856"
     transform="matrix(0.07511764,0,0,0.07511764,84.765704,-7.4078947)" />
  <g
     id="g5858"
     transform="matrix(0.07511764,0,0,0.07511764,84.765704,-7.4078947)" />
  <g
     id="g5860"
     transform="matrix(0.07511764,0,0,0.07511764,84.765704,-7.4078947)" />
</svg>
