<?xml version="1.0" encoding="UTF-8" standalone="no"?>
<!-- Generated by IcoMoon.io -->

<svg
   xmlns:osb="http://www.openswatchbook.org/uri/2009/osb"
   xmlns:dc="http://purl.org/dc/elements/1.1/"
   xmlns:cc="http://creativecommons.org/ns#"
   xmlns:rdf="http://www.w3.org/1999/02/22-rdf-syntax-ns#"
   xmlns:svg="http://www.w3.org/2000/svg"
   xmlns="http://www.w3.org/2000/svg"
   xmlns:sodipodi="http://sodipodi.sourceforge.net/DTD/sodipodi-0.dtd"
   xmlns:inkscape="http://www.inkscape.org/namespaces/inkscape"
   version="1.1"
   width="64"
   height="64"
   viewBox="0 0 64 64"
   id="svg2"
   inkscape:version="0.91 r13725"
   sodipodi:docname="walking.svg">
  <metadata
     id="metadata12">
    <rdf:RDF>
      <cc:Work
         rdf:about="">
        <dc:format>image/svg+xml</dc:format>
        <dc:type
           rdf:resource="http://purl.org/dc/dcmitype/StillImage" />
        <dc:title>home</dc:title>
      </cc:Work>
    </rdf:RDF>
  </metadata>
  <defs
     id="defs10">
    <linearGradient
       id="linearGradient5597"
       osb:paint="solid">
      <stop
         style="stop-color:#000000;stop-opacity:1;"
         offset="0"
         id="stop5599" />
    </linearGradient>
  </defs>
  <sodipodi:namedview
     pagecolor="#ffffff"
     bordercolor="#666666"
     borderopacity="1"
     objecttolerance="10"
     gridtolerance="10"
     guidetolerance="10"
     inkscape:pageopacity="0"
     inkscape:pageshadow="2"
     inkscape:window-width="1366"
     inkscape:window-height="705"
     id="namedview8"
     showgrid="false"
     inkscape:zoom="4"
     inkscape:cx="-15.713919"
     inkscape:cy="11.700508"
     inkscape:window-x="-8"
     inkscape:window-y="-8"
     inkscape:window-maximized="1"
     inkscape:current-layer="g5929" />
  <title
     id="title4">home</title>
  <g
     id="g5814"
     transform="matrix(0.07511764,0,0,0.07511764,84.765704,-7.4078947)">
    <g
       id="g5816">
      <g
         id="g5929"
         transform="translate(-845.34072,193.03056)">
        <g
           id="g6137"
           transform="matrix(1.1633399,0,0,1.1633399,-43.2166,-32.18556)">
          <g
             transform="matrix(5.3104135,0,0,5.3104135,-302.01285,101.55984)"
             id="g5791">
            <g
               id="g5749">
              <path
                 inkscape:connector-curvature="0"
                 d="M 72.932,46.973 61.629,40.45 C 60.904,40.032 60.028,38.919 59.792,38.116 L 56.291,26.204 C 56.204,25.906 56.072,25.64 55.91,25.406 55.401,24.47 54.42,23.834 53.283,23.834 l -14.945,0.645 c -0.655,0.028 -1.264,0.276 -1.763,0.687 -0.1,0.061 -0.204,0.12 -0.294,0.189 l -10.155,7.832 c -1.173,0.905 -1.83,2.745 -1.494,4.188 l 4.021,17.3 c 0.335,1.444 1.717,2.534 3.212,2.534 0.101,0 0.203,-0.005 0.304,-0.015 l 1.501,-0.15 c 0.804,-0.081 1.53,-0.489 1.99,-1.121 0.461,-0.632 0.628,-1.448 0.459,-2.238 L 33.26,40.33 c -0.15,-0.701 0.23,-1.738 0.798,-2.175 l 1.809,-1.393 0.93,21.444 c 0.001,0.023 0.008,0.044 0.01,0.067 l -4.128,9.156 c -0.52,1.153 -1.826,2.75 -2.852,3.489 l -9.678,6.968 c -1.559,1.122 -2.148,3.366 -1.342,5.11 l 1.324,2.861 c 0.528,1.141 1.587,1.85 2.765,1.85 0.674,0 1.337,-0.229 1.917,-0.66 l 12.778,-9.515 c 1.273,-0.948 2.843,-2.793 3.574,-4.202 l 6.379,-12.286 c 0.051,-0.099 0.083,-0.205 0.125,-0.308 l 0.445,-0.019 10.441,28.786 c 0.737,2.032 2.703,3.398 4.892,3.398 0.52,0 1.034,-0.079 1.528,-0.236 l 0.644,-0.205 c 1.276,-0.405 2.301,-1.282 2.887,-2.47 0.585,-1.188 0.656,-2.536 0.2,-3.794 L 57.711,55.885 C 57.66,55.745 57.59,55.617 57.529,55.484 l -0.353,-8.134 12.122,6.297 c 0.426,0.222 0.906,0.339 1.389,0.339 1.122,0 2.149,-0.607 2.68,-1.584 l 0.721,-1.328 c 0.784,-1.441 0.265,-3.281 -1.156,-4.101 z"
                 id="path5751" />
              <path
                 inkscape:connector-curvature="0"
                 d="m 44.162,21.673 c 0.157,0 0.316,-0.003 0.475,-0.01 2.891,-0.125 5.561,-1.37 7.517,-3.503 1.956,-2.133 2.964,-4.901 2.839,-7.792 C 54.735,4.397 49.745,-0.249 43.698,0.01 c -2.891,0.125 -5.561,1.37 -7.517,3.503 -1.956,2.134 -2.964,4.901 -2.839,7.792 0.252,5.814 5.005,10.368 10.82,10.368 z"
                 id="path5753" />
            </g>
            <g
               id="g5755" />
            <g
               id="g5757" />
            <g
               id="g5759" />
            <g
               id="g5761" />
            <g
               id="g5763" />
            <g
               id="g5765" />
            <g
               id="g5767" />
            <g
               id="g5769" />
            <g
               id="g5771" />
            <g
               id="g5773" />
            <g
               id="g5775" />
            <g
               id="g5777" />
            <g
               id="g5779" />
            <g
               id="g5781" />
            <g
               id="g5783" />
          </g>
          <g
             transform="matrix(0.46491581,0,0,0.46491581,92.248274,-27.082691)"
             id="g6022">
            <g
               id="g5982">
              <path
                 inkscape:connector-curvature="0"
                 d="m 537.804,174.688 c 0,-44.772 -33.976,-81.597 -77.552,-86.12 -12.23,-32.981 -43.882,-56.534 -81.128,-56.534 -16.304,0 -31.499,4.59 -44.514,12.422 C 319.808,17.949 291.513,0 258.991,0 c -43.117,0 -78.776,31.556 -85.393,72.809 -3.519,-0.43 -7.076,-0.727 -10.71,-0.727 -47.822,0 -86.598,38.767 -86.598,86.598 0,2.343 0.172,4.638 0.354,6.933 -24.25,15.348 -40.392,42.333 -40.392,73.153 0,27.244 12.604,51.513 32.273,67.387 -0.086,1.559 -0.239,3.107 -0.239,4.686 0,47.822 38.767,86.598 86.598,86.598 14.334,0 27.817,-3.538 39.723,-9.696 16.495,11.848 40.115,26.67 51.551,23.715 0,0 4.255,65.905 3.337,82.64 -1.75,31.843 -11.303,67.291 -18.025,95.979 l 104.117,0 c 0,0 -15.348,-63.954 -16.018,-85.307 -0.669,-21.354 6.675,-60.675 6.675,-60.675 l 36.118,-37.36 c 13.903,9.505 30.695,14.908 48.807,14.908 44.771,0 81.597,-34.062 86.12,-77.639 32.98,-12.23 56.533,-43.968 56.533,-81.214 0,-21.994 -8.262,-41.999 -21.765,-57.279 3.653,-9.583 5.747,-19.948 5.747,-30.821 z M 214.611,373.444 c 6.942,-6.627 12.766,-14.372 17.212,-22.969 l 17.002,35.62 c -0.009,10e-4 -9.256,4.084 -34.214,-12.651 z m 63.572,21.994 c -8.798,1.597 -23.782,-25.494 -34.416,-47.517 11.791,6.015 25.102,9.477 39.254,9.477 3.634,0 7.201,-0.296 10.72,-0.736 -2.735,17.624 -7.554,37.313 -15.558,38.776 z m 37.38,17.337 c -20.35,5.651 -8.167,-36.501 -2.334,-60.904 4.218,-1.568 8.301,-3.413 12.183,-5.604 2.343,17.786 10.069,33.832 21.516,46.521 -9.917,8.809 -21.335,17.204 -31.365,19.987 z"
                 id="path5984" />
            </g>
            <g
               id="g5986" />
            <g
               id="g5988" />
            <g
               id="g5990" />
            <g
               id="g5992" />
            <g
               id="g5994" />
            <g
               id="g5996" />
            <g
               id="g5998" />
            <g
               id="g6000" />
            <g
               id="g6002" />
            <g
               id="g6004" />
            <g
               id="g6006" />
            <g
               id="g6008" />
            <g
               id="g6010" />
            <g
               id="g6012" />
            <g
               id="g6014" />
          </g>
          <g
             id="g6065"
             transform="matrix(0.46491581,0,0,0.46491581,271.10145,142.35716)">
            <g
               id="g6067">
              <path
                 id="path6069"
                 d="m 537.804,174.688 c 0,-44.772 -33.976,-81.597 -77.552,-86.12 -12.23,-32.981 -43.882,-56.534 -81.128,-56.534 -16.304,0 -31.499,4.59 -44.514,12.422 C 319.808,17.949 291.513,0 258.991,0 c -43.117,0 -78.776,31.556 -85.393,72.809 -3.519,-0.43 -7.076,-0.727 -10.71,-0.727 -47.822,0 -86.598,38.767 -86.598,86.598 0,2.343 0.172,4.638 0.354,6.933 -24.25,15.348 -40.392,42.333 -40.392,73.153 0,27.244 12.604,51.513 32.273,67.387 -0.086,1.559 -0.239,3.107 -0.239,4.686 0,47.822 38.767,86.598 86.598,86.598 14.334,0 27.817,-3.538 39.723,-9.696 16.495,11.848 40.115,26.67 51.551,23.715 0,0 4.255,65.905 3.337,82.64 -1.75,31.843 -11.303,67.291 -18.025,95.979 l 104.117,0 c 0,0 -15.348,-63.954 -16.018,-85.307 -0.669,-21.354 6.675,-60.675 6.675,-60.675 l 36.118,-37.36 c 13.903,9.505 30.695,14.908 48.807,14.908 44.771,0 81.597,-34.062 86.12,-77.639 32.98,-12.23 56.533,-43.968 56.533,-81.214 0,-21.994 -8.262,-41.999 -21.765,-57.279 3.653,-9.583 5.747,-19.948 5.747,-30.821 z M 214.611,373.444 c 6.942,-6.627 12.766,-14.372 17.212,-22.969 l 17.002,35.62 c -0.009,10e-4 -9.256,4.084 -34.214,-12.651 z m 63.572,21.994 c -8.798,1.597 -23.782,-25.494 -34.416,-47.517 11.791,6.015 25.102,9.477 39.254,9.477 3.634,0 7.201,-0.296 10.72,-0.736 -2.735,17.624 -7.554,37.313 -15.558,38.776 z m 37.38,17.337 c -20.35,5.651 -8.167,-36.501 -2.334,-60.904 4.218,-1.568 8.301,-3.413 12.183,-5.604 2.343,17.786 10.069,33.832 21.516,46.521 -9.917,8.809 -21.335,17.204 -31.365,19.987 z"
                 inkscape:connector-curvature="0" />
            </g>
            <g
               id="g6071" />
            <g
               id="g6073" />
            <g
               id="g6075" />
            <g
               id="g6077" />
            <g
               id="g6079" />
            <g
               id="g6081" />
            <g
               id="g6083" />
            <g
               id="g6085" />
            <g
               id="g6087" />
            <g
               id="g6089" />
            <g
               id="g6091" />
            <g
               id="g6093" />
            <g
               id="g6095" />
            <g
               id="g6097" />
            <g
               id="g6099" />
          </g>
        </g>
      </g>
    </g>
  </g>
  <g
     id="g5832"
     transform="matrix(0.07511764,0,0,0.07511764,84.765704,-7.4078947)" />
  <g
     id="g5834"
     transform="matrix(0.07511764,0,0,0.07511764,84.765704,-7.4078947)" />
  <g
     id="g5836"
     transform="matrix(0.07511764,0,0,0.07511764,84.765704,-7.4078947)" />
  <g
     id="g5838"
     transform="matrix(0.07511764,0,0,0.07511764,84.765704,-7.4078947)" />
  <g
     id="g5840"
     transform="matrix(0.07511764,0,0,0.07511764,84.765704,-7.4078947)" />
  <g
     id="g5842"
     transform="matrix(0.07511764,0,0,0.07511764,84.765704,-7.4078947)" />
  <g
     id="g5844"
     transform="matrix(0.07511764,0,0,0.07511764,84.765704,-7.4078947)" />
  <g
     id="g5846"
     transform="matrix(0.07511764,0,0,0.07511764,84.765704,-7.4078947)" />
  <g
     id="g5848"
     transform="matrix(0.07511764,0,0,0.07511764,84.765704,-7.4078947)" />
  <g
     id="g5850"
     transform="matrix(0.07511764,0,0,0.07511764,84.765704,-7.4078947)" />
  <g
     id="g5852"
     transform="matrix(0.07511764,0,0,0.07511764,84.765704,-7.4078947)" />
  <g
     id="g5854"
     transform="matrix(0.07511764,0,0,0.07511764,84.765704,-7.4078947)" />
  <g
     id="g5856"
     transform="matrix(0.07511764,0,0,0.07511764,84.765704,-7.4078947)" />
  <g
     id="g5858"
     transform="matrix(0.07511764,0,0,0.07511764,84.765704,-7.4078947)" />
  <g
     id="g5860"
     transform="matrix(0.07511764,0,0,0.07511764,84.765704,-7.4078947)" />
</svg>
